<svg width="100" height="70" viewBox="0 0 100 70" fill="none" xmlns="http://www.w3.org/2000/svg">
<path d="M39.5888 59.18L36.5774 60.9325L34.8011 59.8996L34.2259 59.5694L32.7879 58.7397L35.7992 56.9872L37.2372 57.8253L37.8124 58.1555L39.5888 59.18Z" fill="#D4D4D4"/>
<path d="M83.2278 68.0103L80.2164 69.7629L78.4401 68.73L77.8564 68.3998L76.4269 67.5701L79.4382 65.8176L80.8762 66.6473L81.4514 66.9859L83.2278 68.0103Z" fill="#D4D4D4"/>
<path fill-rule="evenodd" clip-rule="evenodd" d="M78.9307 33.256C78.2963 32.892 77.8734 33.3576 77.8734 34.001C77.8734 34.636 78.567 35.3049 79.2014 35.6774C79.8358 36.0414 80.0896 35.7197 80.0896 35.0847C80.0811 34.4413 79.5651 33.6285 78.9307 33.256Z" fill="#010007"/>
<path fill-rule="evenodd" clip-rule="evenodd" d="M77.3912 33.7047L78.1609 33.2476L78.0848 33.7471L77.3912 33.7047Z" fill="#010007"/>
<path fill-rule="evenodd" clip-rule="evenodd" d="M79.1337 36.2192L79.8612 35.779L79.2268 35.2117L79.1676 35.9229L79.1337 36.2192Z" fill="#010007"/>
<path fill-rule="evenodd" clip-rule="evenodd" d="M78.2456 33.8232C77.6111 33.4592 77.0952 33.6793 77.0952 34.3143C77.0952 34.9493 77.6111 35.7705 78.2456 36.1345C78.88 36.4986 79.396 36.2785 79.396 35.6435C79.396 35.0085 78.88 34.1873 78.2456 33.8232Z" fill="#2E2D30"/>
<path fill-rule="evenodd" clip-rule="evenodd" d="M78.2455 33.9333C77.6703 33.6031 77.2051 33.7978 77.2051 34.3735C77.2051 34.9492 77.6703 35.6858 78.2455 36.016C78.8207 36.3462 79.286 36.1515 79.286 35.5757C79.286 35 78.8123 34.2635 78.2455 33.9333Z" fill="#1B1B1F"/>
<path fill-rule="evenodd" clip-rule="evenodd" d="M78.2456 34.2127C77.8226 33.9672 77.4758 34.1195 77.4758 34.5344C77.4758 34.9577 77.8226 35.4996 78.2456 35.7451C78.6685 35.9906 79.0153 35.8382 79.0153 35.4234C79.0069 35 78.66 34.4497 78.2456 34.2127Z" fill="#3B3B3B"/>
<path fill-rule="evenodd" clip-rule="evenodd" d="M78.2709 34.2635C77.8988 34.0519 77.5942 34.1788 77.5942 34.5514C77.5942 34.9239 77.8988 35.4065 78.2709 35.6181C78.6431 35.8298 78.9477 35.7028 78.9477 35.3303C78.9477 34.9577 78.6431 34.4836 78.2709 34.2635Z" fill="#CECECE"/>
<path fill-rule="evenodd" clip-rule="evenodd" d="M78.8377 35.1694C78.7954 34.8731 78.5585 34.526 78.2709 34.3651C78.2625 34.3566 78.254 34.3566 78.2455 34.3566C77.941 34.1873 77.6873 34.3058 77.6873 34.6106C77.6873 34.9323 77.9495 35.3387 78.2625 35.525C78.5839 35.7028 78.8377 35.5927 78.8377 35.2795C78.8546 35.2456 78.8461 35.2033 78.8377 35.1694Z" fill="#7C7774"/>
<path fill-rule="evenodd" clip-rule="evenodd" d="M78.2709 34.3651C78.2625 34.3566 78.254 34.3566 78.2455 34.3566C78.1356 34.3566 78.0594 34.4413 78.0594 34.5852C78.0594 34.8053 78.2371 35.0932 78.4655 35.2202C78.6347 35.3218 78.7869 35.2964 78.8377 35.1779C78.7954 34.8731 78.5585 34.526 78.2709 34.3651Z" fill="#CECECE"/>
<path d="M77.7042 27.101V34.8646C77.7042 34.9578 77.848 35.0424 78.0171 35.034C78.1863 35.034 78.3217 34.9493 78.3217 34.8562V27.0925L77.7042 27.101Z" fill="url(#paint0_linear_246_12253)"/>
<path fill-rule="evenodd" clip-rule="evenodd" d="M77.4927 34.1365C76.8583 33.7724 76.4354 34.2381 76.4354 34.8815C76.4354 35.5165 77.129 36.1854 77.7634 36.5579C78.3978 36.9219 78.6516 36.6002 78.6516 35.9652C78.6431 35.3133 78.1271 34.5006 77.4927 34.1365Z" fill="#010007"/>
<path fill-rule="evenodd" clip-rule="evenodd" d="M75.9532 34.5852L76.7229 34.1196L76.6468 34.6191L75.9532 34.5852Z" fill="#010007"/>
<path fill-rule="evenodd" clip-rule="evenodd" d="M77.6957 37.0997L78.4147 36.651L77.7888 36.0837L77.7296 36.7949L77.6957 37.0997Z" fill="#010007"/>
<path fill-rule="evenodd" clip-rule="evenodd" d="M76.7991 34.6953C76.1647 34.3313 75.6487 34.5514 75.6487 35.1864C75.6487 35.8213 76.1647 36.6426 76.7991 37.0066C77.4335 37.3707 77.9495 37.1505 77.9495 36.5156C77.9579 35.8806 77.442 35.0594 76.7991 34.6953Z" fill="#2E2D30"/>
<path fill-rule="evenodd" clip-rule="evenodd" d="M76.7991 34.8053C76.2239 34.4752 75.7586 34.6699 75.7586 35.2456C75.7586 35.8213 76.2239 36.5579 76.7991 36.8881C77.3743 37.2183 77.8395 37.0235 77.8395 36.4478C77.848 35.8806 77.3743 35.1355 76.7991 34.8053Z" fill="#1B1B1F"/>
<path fill-rule="evenodd" clip-rule="evenodd" d="M76.7991 35.0847C76.3761 34.8392 76.0293 34.9916 76.0293 35.4065C76.0293 35.8298 76.3761 36.3716 76.7991 36.6171C77.222 36.8627 77.5688 36.7103 77.5688 36.2954C77.5688 35.8721 77.222 35.3303 76.7991 35.0847Z" fill="#3B3B3B"/>
<path fill-rule="evenodd" clip-rule="evenodd" d="M76.8329 35.144C76.4607 34.9323 76.1562 35.0593 76.1562 35.4319C76.1562 35.8044 76.4607 36.287 76.8329 36.4986C77.2051 36.7103 77.5096 36.5833 77.5096 36.2108C77.5096 35.8382 77.2051 35.3557 76.8329 35.144Z" fill="#CECECE"/>
<path fill-rule="evenodd" clip-rule="evenodd" d="M77.3996 36.0499C77.3574 35.7536 77.1205 35.4064 76.8329 35.2456C76.8245 35.2371 76.8245 35.2371 76.8075 35.2371C76.503 35.0678 76.2493 35.1863 76.2493 35.4911C76.2493 35.8128 76.5115 36.2192 76.8245 36.4055C77.1459 36.5833 77.3996 36.4732 77.3996 36.16C77.4166 36.1176 77.4081 36.0838 77.3996 36.0499Z" fill="#7C7774"/>
<path fill-rule="evenodd" clip-rule="evenodd" d="M76.8329 35.2371C76.8245 35.2286 76.8245 35.2286 76.8075 35.2286C76.6976 35.2286 76.6215 35.3048 76.6215 35.4572C76.6215 35.6773 76.7991 35.9652 77.0275 36.0922C77.1967 36.1938 77.3489 36.1684 77.3997 36.0499C77.3574 35.7451 77.1205 35.398 76.8329 35.2371Z" fill="#CECECE"/>
<path fill-rule="evenodd" clip-rule="evenodd" d="M82.6018 66.0716C81.9674 65.7076 81.5444 66.1732 81.5444 66.8167C81.5444 67.4516 82.2381 68.1205 82.8725 68.493C83.5069 68.857 83.7607 68.5353 83.7607 67.9003C83.7522 67.2569 83.2362 66.4357 82.6018 66.0716Z" fill="#010007"/>
<path fill-rule="evenodd" clip-rule="evenodd" d="M81.0623 66.5203L81.832 66.0631L81.7559 66.5542L81.0623 66.5203Z" fill="#010007"/>
<path fill-rule="evenodd" clip-rule="evenodd" d="M82.8048 69.0348L83.5238 68.5946L82.8979 68.0189L82.8386 68.7385L82.8048 69.0348Z" fill="#010007"/>
<path fill-rule="evenodd" clip-rule="evenodd" d="M81.9082 66.6389C81.2738 66.2748 80.7578 66.4949 80.7578 67.1299C80.7578 67.7649 81.2738 68.5861 81.9082 68.9502C82.5426 69.3142 83.0586 69.0941 83.0586 68.4591C83.0586 67.8241 82.5426 67.0029 81.9082 66.6389Z" fill="#2E2D30"/>
<path fill-rule="evenodd" clip-rule="evenodd" d="M81.9082 66.7489C81.333 66.4187 80.8677 66.6134 80.8677 67.1891C80.8677 67.7649 81.333 68.5014 81.9082 68.8316C82.4834 69.1618 82.9486 68.9671 82.9486 68.3914C82.9486 67.8156 82.4834 67.0791 81.9082 66.7489Z" fill="#1B1B1F"/>
<path fill-rule="evenodd" clip-rule="evenodd" d="M81.9082 67.0283C81.4852 66.7828 81.1384 66.9352 81.1384 67.35C81.1384 67.7733 81.4852 68.3152 81.9082 68.5607C82.3311 68.8062 82.6779 68.6538 82.6779 68.239C82.6779 67.8072 82.3311 67.2653 81.9082 67.0283Z" fill="#3B3B3B"/>
<path fill-rule="evenodd" clip-rule="evenodd" d="M81.942 67.0791C81.5698 66.8674 81.2653 66.9944 81.2653 67.3669C81.2653 67.7394 81.5698 68.222 81.942 68.4337C82.3142 68.6453 82.6187 68.5183 82.6187 68.1458C82.6187 67.7733 82.3142 67.2992 81.942 67.0791Z" fill="#CECECE"/>
<path fill-rule="evenodd" clip-rule="evenodd" d="M82.5088 67.985C82.4665 67.6887 82.2296 67.3416 81.942 67.1807C81.9336 67.1807 81.9336 67.1722 81.9166 67.1722C81.6121 67.0029 81.3584 67.1214 81.3584 67.4262C81.3584 67.7479 81.6206 68.1543 81.9336 68.3406C82.255 68.5184 82.5088 68.4168 82.5088 68.0951C82.5172 68.0612 82.5172 68.0189 82.5088 67.985Z" fill="#7C7774"/>
<path fill-rule="evenodd" clip-rule="evenodd" d="M81.942 67.1807C81.9335 67.1807 81.9335 67.1722 81.9166 67.1722C81.8067 67.1722 81.7305 67.2484 81.7305 67.4008C81.7305 67.621 81.9082 67.9088 82.1366 68.0358C82.3057 68.1374 82.458 68.112 82.5087 67.9935C82.4664 67.6887 82.2296 67.3416 81.942 67.1807Z" fill="#CECECE"/>
<path d="M80.1826 66.588L80.8593 65.5636L80.9524 65.6737L80.2841 66.6981L80.1826 66.588Z" fill="#B37100"/>
<path d="M81.9082 64.954L80.8593 65.5636L80.9524 65.6737L82.0013 65.0641L81.9082 64.954Z" fill="#C3840C"/>
<path d="M81.333 66.0801L80.2841 66.6981L80.9524 65.6737L82.0097 65.0557L81.333 66.0801Z" fill="#E1AD25"/>
<path d="M81.3753 59.9165V67.6802C81.3753 67.7733 81.5191 67.858 81.6883 67.8495C81.8574 67.8495 82.0012 67.7649 81.9928 67.6717V59.9081L81.3753 59.9165Z" fill="url(#paint1_linear_246_12253)"/>
<path fill-rule="evenodd" clip-rule="evenodd" d="M81.1638 66.9436C80.5294 66.5796 80.1064 67.0452 80.1064 67.6887C80.1064 68.3236 80.8001 68.9925 81.4345 69.365C82.0689 69.729 82.3227 69.4073 82.3227 68.7723C82.3142 68.1289 81.7982 67.3161 81.1638 66.9436Z" fill="#010007"/>
<path fill-rule="evenodd" clip-rule="evenodd" d="M79.6243 67.3924L80.3941 66.9352L80.3179 67.4347L79.6243 67.3924Z" fill="#010007"/>
<path fill-rule="evenodd" clip-rule="evenodd" d="M81.3584 69.9069L82.0858 69.4666L81.4599 68.8994L81.4007 69.6105L81.3584 69.9069Z" fill="#010007"/>
<path fill-rule="evenodd" clip-rule="evenodd" d="M80.4702 67.5109C79.8358 67.1468 79.3198 67.3669 79.3198 68.0019C79.3198 68.6369 79.8358 69.4581 80.4702 69.8222C81.1046 70.1862 81.6206 69.9661 81.6206 69.3311C81.629 68.6962 81.1046 67.8749 80.4702 67.5109Z" fill="#2E2D30"/>
<path fill-rule="evenodd" clip-rule="evenodd" d="M80.4702 67.621C79.895 67.2908 79.4297 67.4855 79.4297 68.0612C79.4297 68.6369 79.895 69.3735 80.4702 69.7037C81.0454 70.0339 81.5106 69.8391 81.5106 69.2634C81.5106 68.6877 81.0454 67.9511 80.4702 67.621Z" fill="#1B1B1F"/>
<path fill-rule="evenodd" clip-rule="evenodd" d="M80.4702 67.9004C80.0472 67.6548 79.7004 67.8072 79.7004 68.2221C79.7004 68.6454 80.0472 69.1872 80.4702 69.4328C80.8931 69.6783 81.2399 69.5259 81.2399 69.111C81.2399 68.6877 80.8931 68.1459 80.4702 67.9004Z" fill="#3B3B3B"/>
<path fill-rule="evenodd" clip-rule="evenodd" d="M80.504 67.9511C80.1318 67.7395 79.8273 67.8665 79.8273 68.239C79.8273 68.6115 80.1318 69.0941 80.504 69.3057C80.8762 69.5174 81.1807 69.3904 81.1807 69.0179C81.1807 68.6454 80.8762 68.1713 80.504 67.9511Z" fill="#CECECE"/>
<path fill-rule="evenodd" clip-rule="evenodd" d="M81.0708 68.857C81.0285 68.5607 80.7916 68.2136 80.504 68.0527C80.4956 68.0443 80.4956 68.0442 80.4871 68.0442C80.1826 67.8749 79.9288 67.9935 79.9288 68.2982C79.9288 68.62 80.1911 69.0264 80.504 69.2126C80.8255 69.3904 81.0792 69.2803 81.0792 68.9671C81.0792 68.9332 81.0792 68.8909 81.0708 68.857Z" fill="#7C7774"/>
<path fill-rule="evenodd" clip-rule="evenodd" d="M80.504 68.0527C80.4956 68.0443 80.4956 68.0443 80.4871 68.0443C80.3772 68.0443 80.301 68.1204 80.301 68.2728C80.301 68.493 80.4787 68.7808 80.707 68.9078C80.8762 69.0094 81.0285 68.984 81.0792 68.8655C81.0285 68.5607 80.7916 68.2136 80.504 68.0527Z" fill="#CECECE"/>
<path d="M83.0586 68.222L81.6291 66.0885H81.739L83.1686 68.2305L83.0586 68.222Z" fill="#B37100"/>
<path d="M82.6779 65.4705L81.6291 66.0885H81.739L82.7794 65.4789L82.6779 65.4705Z" fill="#C3840C"/>
<path d="M84.2259 67.6124L83.1686 68.2305L81.739 66.0885L82.7879 65.4705L84.2259 67.6124Z" fill="#E1AD25"/>
<path fill-rule="evenodd" clip-rule="evenodd" d="M38.6837 57.0973C38.0493 56.7332 37.6263 57.1989 37.6263 57.8423C37.6263 58.4773 38.3199 59.1461 38.9544 59.5186C39.5888 59.8827 39.8425 59.561 39.8425 58.926C39.8425 58.2741 39.3181 57.4613 38.6837 57.0973Z" fill="#010007"/>
<path fill-rule="evenodd" clip-rule="evenodd" d="M37.1526 57.546L37.9224 57.0803L37.8463 57.5798L37.1526 57.546Z" fill="#010007"/>
<path fill-rule="evenodd" clip-rule="evenodd" d="M38.8867 60.0605L39.6141 59.6118L38.9797 59.0446L38.9205 59.7642L38.8867 60.0605Z" fill="#010007"/>
<path fill-rule="evenodd" clip-rule="evenodd" d="M37.9985 57.6561C37.3641 57.292 36.8481 57.5121 36.8481 58.1471C36.8481 58.7821 37.3641 59.6033 37.9985 59.9674C38.6329 60.3314 39.1489 60.1113 39.1489 59.4763C39.1489 58.8413 38.6329 58.0201 37.9985 57.6561Z" fill="#2E2D30"/>
<path fill-rule="evenodd" clip-rule="evenodd" d="M37.9985 57.7661C37.4233 57.4359 36.9581 57.6306 36.9581 58.2064C36.9581 58.7821 37.4233 59.5186 37.9985 59.8488C38.5737 60.179 39.0389 59.9843 39.0389 59.4086C39.0389 58.8413 38.5737 58.1048 37.9985 57.7661Z" fill="#1B1B1F"/>
<path fill-rule="evenodd" clip-rule="evenodd" d="M37.9985 58.0455C37.5756 57.8 37.2288 57.9524 37.2288 58.3672C37.2288 58.7905 37.5756 59.3324 37.9985 59.5779C38.4215 59.8234 38.7683 59.671 38.7683 59.2562C38.7683 58.8329 38.4215 58.291 37.9985 58.0455Z" fill="#3B3B3B"/>
<path fill-rule="evenodd" clip-rule="evenodd" d="M38.0323 58.1048C37.6602 57.8931 37.3556 58.0201 37.3556 58.3926C37.3556 58.7651 37.6602 59.2477 38.0323 59.4594C38.4045 59.671 38.709 59.544 38.709 59.1715C38.709 58.799 38.4045 58.3164 38.0323 58.1048Z" fill="#CECECE"/>
<path fill-rule="evenodd" clip-rule="evenodd" d="M38.5991 59.0106C38.5568 58.7143 38.3199 58.3672 38.0324 58.2063C38.0239 58.2063 38.0239 58.1979 38.0154 58.1979C37.7109 58.0285 37.4572 58.1471 37.4572 58.4519C37.4572 58.7736 37.7194 59.18 38.0324 59.3662C38.3538 59.544 38.6075 59.434 38.6075 59.1207C38.6075 59.0784 38.6075 59.0445 38.5991 59.0106Z" fill="#7C7774"/>
<path fill-rule="evenodd" clip-rule="evenodd" d="M38.0323 58.1979C38.0239 58.1979 38.0239 58.1894 38.0154 58.1894C37.9055 58.1894 37.8293 58.2656 37.8293 58.418C37.8293 58.6381 38.007 58.926 38.2354 59.053C38.4045 59.1546 38.5568 59.1292 38.6075 59.0106C38.5568 58.7058 38.3199 58.3587 38.0323 58.1979Z" fill="#CECECE"/>
<path d="M37.4656 50.9338V58.6974C37.4656 58.7905 37.6094 58.8752 37.7786 58.8667C37.9478 58.8667 38.0916 58.7905 38.0831 58.6889V50.9253L37.4656 50.9338Z" fill="url(#paint2_linear_246_12253)"/>
<path fill-rule="evenodd" clip-rule="evenodd" d="M37.2457 57.9693C36.6113 57.6052 36.1883 58.0709 36.1883 58.7143C36.1883 59.3493 36.882 60.0181 37.5164 60.3906C38.1508 60.7547 38.4045 60.433 38.4045 59.798C38.4045 59.1545 37.8801 58.3333 37.2457 57.9693Z" fill="#010007"/>
<path fill-rule="evenodd" clip-rule="evenodd" d="M35.7062 58.418L36.4759 57.9608L36.3998 58.4519L35.7062 58.418Z" fill="#010007"/>
<path fill-rule="evenodd" clip-rule="evenodd" d="M37.4487 60.9325L38.1761 60.4837L37.5417 59.9165L37.4825 60.6361L37.4487 60.9325Z" fill="#010007"/>
<path fill-rule="evenodd" clip-rule="evenodd" d="M36.5605 58.528C35.9261 58.164 35.4101 58.3841 35.4101 59.0191C35.4101 59.6541 35.9261 60.4753 36.5605 60.8393C37.1949 61.2034 37.7109 60.9833 37.7109 60.3483C37.7109 59.7133 37.1949 58.9005 36.5605 58.528Z" fill="#2E2D30"/>
<path fill-rule="evenodd" clip-rule="evenodd" d="M36.5605 58.6466C35.9853 58.3164 35.5201 58.5111 35.5201 59.0868C35.5201 59.6626 35.9853 60.3991 36.5605 60.7293C37.1357 61.0595 37.601 60.8648 37.601 60.2891C37.601 59.7134 37.1357 58.9768 36.5605 58.6466Z" fill="#1B1B1F"/>
<path fill-rule="evenodd" clip-rule="evenodd" d="M36.5605 58.9175C36.1376 58.672 35.7908 58.8244 35.7908 59.2392C35.7908 59.6625 36.1376 60.2044 36.5605 60.4499C36.9835 60.6954 37.3303 60.543 37.3303 60.1282C37.3218 59.7049 36.9835 59.163 36.5605 58.9175Z" fill="#3B3B3B"/>
<path fill-rule="evenodd" clip-rule="evenodd" d="M36.5944 58.9768C36.2222 58.7651 35.9177 58.8921 35.9177 59.2646C35.9177 59.6371 36.2222 60.1197 36.5944 60.3314C36.9666 60.543 37.2711 60.4161 37.2711 60.0435C37.2711 59.671 36.9666 59.1884 36.5944 58.9768Z" fill="#CECECE"/>
<path fill-rule="evenodd" clip-rule="evenodd" d="M37.1526 59.8826C37.1103 59.5863 36.8735 59.2392 36.5859 59.0784C36.5774 59.0699 36.569 59.0699 36.5605 59.0699C36.256 58.9006 36.0022 59.0191 36.0022 59.3239C36.0022 59.6456 36.2645 60.052 36.5774 60.2382C36.8989 60.416 37.1526 60.306 37.1526 59.9927C37.1696 59.9504 37.1611 59.9165 37.1526 59.8826Z" fill="#7C7774"/>
<path fill-rule="evenodd" clip-rule="evenodd" d="M36.5859 59.0699C36.5774 59.0614 36.569 59.0614 36.5605 59.0614C36.4506 59.0614 36.3744 59.1461 36.3744 59.29C36.3744 59.5101 36.5521 59.798 36.7805 59.925C36.9496 60.0266 37.1019 60.0012 37.1526 59.8826C37.1104 59.5779 36.8735 59.2307 36.5859 59.0699Z" fill="#CECECE"/>
<path d="M20.5226 24.6034L22.392 21.3693L19.1185 19.549C18.8647 19.4136 18.5264 19.439 18.1626 19.6506C17.4183 20.0739 17.1137 21.073 17.1137 21.9196C17.1137 22.5715 17.5536 22.944 18.1034 23.2488L18.1203 23.2573C18.1288 23.2573 18.1288 23.2657 18.1373 23.2657L20.5226 24.6034Z" fill="url(#paint3_linear_246_12253)"/>
<path d="M80.0472 37.413L76.7652 43.0939L75.1919 42.2219C75.1919 42.2219 75.175 42.2134 75.1411 42.188L74.236 41.6885L72.5781 40.7657L72.5443 40.7487L72.502 40.7318C71.5292 40.1899 70.345 39.157 70.3281 38.4459V38.2512C70.3704 36.9304 71.2162 35.3895 72.3074 34.6022C72.4005 34.5344 72.502 34.4667 72.6035 34.4074C73.2548 34.0434 73.8469 34.001 74.2868 34.2381V34.2296L74.5321 34.3736C74.5406 34.3736 74.5406 34.382 74.549 34.382L78.347 36.4986L80.0472 37.413Z" fill="#A4CBEB"/>
<path d="M78.3639 36.4732C78.0679 36.5409 77.7972 36.5579 77.5096 36.7357C77.2051 36.9304 76.9598 37.1929 76.7483 37.4807C76.3253 38.0734 75.9955 38.7337 75.7501 39.428C75.6402 39.7412 75.5048 40.0375 75.4372 40.3762C75.378 40.6979 75.3357 41.0281 75.2342 41.3414C75.2172 41.426 75.2257 42.1541 75.1919 42.2134C75.1919 42.2134 75.175 42.2049 75.1411 42.1795C74.9804 42.0949 74.4221 41.8155 74.2783 41.7732C74.2276 41.7562 74.2191 41.7224 74.236 41.68C74.2529 41.5615 74.456 41.3752 74.3291 41.3075C73.9315 41.0874 73.5339 40.8588 73.1279 40.6387C72.7304 40.427 72.3328 40.1984 71.9352 39.9783C71.377 39.6142 70.7933 39.0808 70.4634 38.4967C70.4126 38.412 70.3704 38.3358 70.3281 38.2427C70.1758 37.9379 70.0828 37.5908 70.1589 37.269C70.2688 36.8119 70.5057 36.3716 70.7679 35.9906C71.0217 35.6266 71.3093 35.2795 71.6392 35.0001C71.8422 34.8392 72.0621 34.7037 72.3074 34.5937C72.9926 34.2889 73.7793 34.2212 74.5321 34.3566C74.5405 34.3566 74.5405 34.3651 74.549 34.3651L78.3639 36.4732Z" fill="#7290DB"/>
<path d="M80.0303 37.413L77.4842 35.9906V35.9991C77.0444 35.7705 76.4523 35.8044 75.8009 36.1769C74.4983 36.9304 73.9569 38.6829 73.9569 40.1561C73.9569 41.2906 74.7267 41.9594 75.6994 42.4928L75.7333 42.5097C75.7417 42.5182 75.7502 42.5182 75.7671 42.5266L76.7568 43.077L80.0303 37.413Z" fill="#FFD800"/>
<path d="M80.7493 38.8861C80.7916 40.3677 79.7765 42.171 78.4739 42.9246C77.1712 43.6781 76.0716 43.0854 76.0293 41.6038C75.987 40.1222 77.0021 38.3189 78.3047 37.5654C79.6158 36.8119 80.707 37.4045 80.7493 38.8861Z" fill="#FAA808"/>
<path d="M80.6647 38.9369C80.707 40.3593 79.7258 42.0949 78.4739 42.8145C77.222 43.5342 76.1646 42.9669 76.1224 41.5446C76.0801 40.1222 77.0613 38.3866 78.3132 37.667C79.5651 36.9473 80.614 37.5146 80.6647 38.9369Z" fill="#EDEDED"/>
<path d="M80.1572 39.2671C80.191 40.3678 79.4297 41.7224 78.457 42.2812C77.4842 42.8399 76.6722 42.3997 76.6299 41.2991C76.596 40.1984 77.3573 38.8438 78.3301 38.285C79.3029 37.7178 80.1234 38.158 80.1572 39.2671Z" fill="#DEF7FF"/>
<path d="M80.0303 39.3349C80.0641 40.3593 79.3536 41.6208 78.4485 42.1372C77.5434 42.6622 76.7821 42.2473 76.7483 41.2229C76.7145 40.1985 77.425 38.937 78.3301 38.4205C79.2436 37.8956 80.0049 38.302 80.0303 39.3349Z" fill="#071C26"/>
<path d="M78.3132 38.429C77.4166 38.9623 76.7145 40.2069 76.7483 41.2229C76.7483 41.3668 76.7737 41.5022 76.8075 41.6208L78.051 42.315C78.1778 42.2811 78.3132 42.2219 78.4485 42.1457C79.3452 41.6292 80.0388 40.4101 80.0303 39.3941L78.3132 38.429Z" fill="#56757E"/>
<path d="M77.425 39.2587C77.112 39.6905 76.8836 40.1984 76.7906 40.6979L78.8545 41.8409C79.2352 41.5022 79.5651 41.0535 79.7681 40.5625L77.425 39.2587Z" fill="#E2FF9B"/>
<path d="M77.425 39.2587C77.112 39.6905 76.8836 40.1984 76.7906 40.6979L78.8545 41.8409C79.2352 41.5022 79.5651 41.0535 79.7681 40.5625L77.425 39.2587Z" fill="#8DA9B1"/>
<path d="M79.4974 39.3095C79.5228 40.1307 78.956 41.1297 78.237 41.5446C77.518 41.9594 76.909 41.6292 76.8836 40.8165C76.8583 40.0037 77.425 39.0047 78.144 38.5814C78.8714 38.1665 79.472 38.4967 79.4974 39.3095Z" fill="#56757E"/>
<path d="M79.269 39.3688C79.2944 40.0715 78.8038 40.9266 78.1863 41.2821C77.5688 41.6377 77.0528 41.3583 77.0274 40.6556C77.0105 39.9529 77.4927 39.0978 78.1102 38.7422C78.7277 38.3867 79.2436 38.666 79.269 39.3688Z" fill="#071C26"/>
<path d="M78.6092 40.1223C78.6177 40.2916 78.4993 40.4948 78.3555 40.5794C78.2117 40.6641 78.0848 40.5964 78.0763 40.427C78.0763 40.2577 78.1863 40.0545 78.3301 39.9699C78.4824 39.8852 78.6092 39.9529 78.6092 40.1223Z" fill="#56757E"/>
<path d="M83.067 32.1385L86.3491 26.4576L80.5971 23.2573V23.2658C80.1572 23.0372 79.5651 23.071 78.9138 23.4435C77.6111 24.197 76.5876 26.0004 76.6383 27.482C76.6553 28.1932 77.8395 29.2261 78.8207 29.7679L78.8461 29.7848C78.8546 29.7933 78.863 29.7933 78.8799 29.8018L83.067 32.1385Z" fill="#A4CBEB"/>
<path d="M78.1102 26.3983C78.2878 26.0004 78.5839 25.6617 78.8968 25.3569C79.2437 25.0183 79.6158 24.6965 80.0642 24.5103C80.4363 24.3579 80.817 24.3325 81.2146 24.2902C81.5106 24.2563 81.7559 24.0108 82.0604 24.087C82.2127 24.1293 83.0755 24.468 82.9655 24.6712C82.9401 24.7219 82.6103 24.7981 82.5341 24.8405C82.348 24.959 82.1789 25.1199 82.0435 25.2892C81.4768 25.9834 81.1976 26.4914 80.8847 27.6174C80.7578 28.0831 80.6732 28.608 80.6647 29.0906C80.6478 29.5054 80.504 30.4452 80.6901 30.8177C80.6394 30.7161 80.0895 30.4452 79.9711 30.3944C79.7596 30.3097 79.1506 30.0219 78.9222 29.9626C78.457 29.8526 78.6769 29.5732 78.3639 29.1922C77.7803 28.4979 77.738 27.228 78.1102 26.3983Z" fill="#7290DB"/>
<path d="M86.5013 26.4999L83.9552 25.0775V25.086C83.5154 24.8574 82.9233 24.8913 82.2719 25.2638C80.9693 26.0173 80.4279 27.7698 80.4279 29.243C80.4279 30.3775 81.1977 31.0463 82.1704 31.5797L82.2043 31.5966C82.2127 31.6051 82.2212 31.6051 82.2381 31.6136L83.2278 32.1639L86.5013 26.4999Z" fill="#FFD800"/>
<path d="M87.0511 27.9307C87.0934 29.4123 86.0784 31.2157 84.7757 31.9692C83.4731 32.7227 82.3734 32.13 82.3311 30.6484C82.2888 29.1668 83.3039 27.3635 84.6066 26.61C85.9177 25.8649 87.0089 26.4491 87.0511 27.9307Z" fill="#FAA808"/>
<path d="M86.9581 27.99C87.0004 29.4123 86.0192 31.148 84.7673 31.8676C83.5154 32.5872 82.458 32.02 82.4157 30.5976C82.3734 29.1753 83.3546 27.4397 84.6065 26.72C85.8669 25.9919 86.9158 26.5592 86.9581 27.99Z" fill="#EDEDED"/>
<path d="M86.459 28.3117C86.4929 29.4208 85.7316 30.7669 84.7588 31.3257C83.7861 31.8845 82.9656 31.4442 82.9317 30.3436C82.8979 29.2345 83.6592 27.8884 84.6319 27.3296C85.6047 26.7623 86.4167 27.2026 86.459 28.3117Z" fill="#DEF7FF"/>
<path d="M86.3322 28.3794C86.366 29.4123 85.6555 30.6653 84.7504 31.1902C83.8453 31.7151 83.084 31.3003 83.0501 30.2758C83.0163 29.243 83.7268 27.9899 84.6319 27.465C85.5455 26.9401 86.3068 27.3465 86.3322 28.3794Z" fill="#071C26"/>
<path d="M84.615 27.4735C83.7184 27.9984 83.0163 29.243 83.0502 30.2674C83.0502 30.4113 83.0755 30.5468 83.1094 30.6653L84.3528 31.3511C84.4797 31.3172 84.615 31.258 84.7504 31.1818C85.647 30.6653 86.3406 29.4462 86.3322 28.4302L84.615 27.4735Z" fill="#56757E"/>
<path d="M83.7269 28.3032C83.4139 28.735 83.1855 29.243 83.0924 29.7425L85.1479 30.8855C85.5286 30.5468 85.8585 30.0981 86.07 29.607L83.7269 28.3032Z" fill="#E2FF9B"/>
<path d="M83.7269 28.3032C83.4139 28.735 83.1855 29.243 83.0924 29.7425L85.1479 30.8855C85.5286 30.5468 85.8585 30.0981 86.07 29.607L83.7269 28.3032Z" fill="#8DA9B1"/>
<path d="M85.7992 28.3625C85.8246 29.1837 85.2579 30.1828 84.5389 30.5892C83.8199 31.004 83.2109 30.6823 83.1855 29.8611C83.1601 29.0398 83.7268 28.0408 84.4458 27.6259C85.1648 27.2111 85.7739 27.5413 85.7992 28.3625Z" fill="#56757E"/>
<path d="M85.5709 28.4133C85.5878 29.116 85.1056 29.9711 84.4881 30.3267C83.8706 30.6823 83.3462 30.4029 83.3293 29.7002C83.3124 28.9975 83.7945 28.1424 84.412 27.7868C85.0295 27.4312 85.5455 27.7106 85.5709 28.4133Z" fill="#071C26"/>
<path d="M84.9111 29.1668C84.9111 29.3361 84.8011 29.5393 84.6573 29.624C84.5135 29.7087 84.3866 29.6409 84.3782 29.4716C84.3697 29.3023 84.4881 29.0991 84.6319 29.0144C84.7757 28.9298 84.9111 28.9975 84.9111 29.1668Z" fill="#56757E"/>
<path d="M66.9699 36.2023L72.7726 46.6328L85.7146 15.7391L85.5201 14.8078C85.5116 14.8078 66.9699 36.0668 66.9699 36.2023Z" fill="#FAA808"/>
<path d="M71.6476 47.344L85.5116 14.8078L77.9241 10.8117L65.4473 28.464L55.0345 37.413C55.0345 37.413 67.5282 43.8897 71.6476 47.344Z" fill="#CCE6FF"/>
<path d="M65.4473 28.4556L66.2086 28.9297L57.3861 38.0649L55.9735 36.5748L65.4473 28.4556Z" fill="#ABC3D9"/>
<path d="M80.0303 11.9208L57.5299 42.061L66.141 45.8116L82.7625 13.3516L80.0303 11.9208Z" fill="#D1EBFF"/>
<path d="M66.4793 45.1682L82.7625 13.3516L85.5116 14.8078L72.2651 45.8963L66.4793 45.1682Z" fill="#DEF8FF"/>
<path d="M99.3333 66.3763C99.3333 66.5457 99.3079 66.7235 99.2656 66.8843C99.1303 67.4346 98.7835 67.9257 98.259 68.2389C97.9376 68.4167 97.5824 68.5437 97.1932 68.6284C96.9395 68.6792 96.6688 68.7131 96.3812 68.73H96.3558C96.2881 68.73 96.2205 68.7384 96.1443 68.7384C96.0851 68.7384 96.0344 68.73 95.9752 68.73C95.8906 68.73 95.8145 68.73 95.7214 68.73C95.603 68.7215 95.4761 68.7215 95.3492 68.7046C93.5644 68.5522 90.3332 68.2559 88.3792 67.5786C87.3895 67.2314 87.5925 66.5033 86.7212 66.2239C86.2983 66.0885 85.9092 65.9784 85.537 65.8938C85.427 65.8599 85.3255 65.843 85.224 65.8176L56.5994 51.0861L29.379 35.3303L28.2878 34.6953C28.051 34.5344 27.8141 34.3566 27.5773 34.1873C26.9767 33.7301 26.3846 33.256 25.8178 32.765C25.0312 32.0876 24.2699 31.368 23.5509 30.6145C23.2548 30.3097 22.9757 29.9965 22.705 29.6663C22.2144 29.1075 21.7576 28.5148 21.3347 27.8968C20.6749 26.9401 20.1082 25.9072 19.7275 24.8151C19.5922 24.4341 19.4822 24.0361 19.4061 23.6467C19.3722 23.4604 19.3722 23.2403 19.313 23.0625C19.2792 22.9525 19.1608 22.8763 19.0846 22.7916C18.9747 22.6815 18.8647 22.5715 18.7801 22.4445C18.6617 22.2751 18.5602 22.072 18.5179 21.8688C18.5264 21.801 18.5264 21.7418 18.5348 21.6825C18.5348 21.6486 18.5433 21.6148 18.5517 21.5724C18.5602 21.5216 18.5687 21.4624 18.5771 21.42C18.594 21.3185 18.6279 21.2253 18.6617 21.1237C18.6786 21.0645 18.704 21.0052 18.7294 20.9544C18.7632 20.8867 18.7886 20.8189 18.8224 20.7597C18.8393 20.7343 18.8563 20.7089 18.8732 20.6835C18.8985 20.6496 18.9155 20.6073 18.9493 20.5649C18.9916 20.5057 19.0339 20.4464 19.0846 20.3872C19.11 20.3533 19.1354 20.3279 19.1608 20.3025L19.1692 20.294C19.3553 20.1755 20.2604 16.7128 20.3281 16.662C20.345 16.645 20.8525 16.1963 21.377 16.154C21.5377 16.1455 21.6984 16.1286 21.8507 16.1201C22.6373 16.1201 28.6515 18.5669 29.4128 18.7193C29.5566 18.7447 29.7089 18.787 29.8696 18.8209C29.9711 18.8463 30.0726 18.8717 30.1741 18.8971C30.4871 18.9817 30.8001 19.0749 31.1046 19.1849C31.1723 19.2103 31.2484 19.2357 31.3161 19.2696C31.5445 19.3543 31.7728 19.4474 32.0012 19.549C32.0097 19.549 32.0266 19.5575 32.0351 19.5659C32.3819 19.7183 32.7118 19.8961 33.0417 20.0908L38.9036 23.4858L89.7241 52.754C91.5089 53.7784 93.0823 55.1246 94.3511 56.7078C94.3511 56.7078 94.3595 56.7162 94.3765 56.7416C94.4018 56.767 94.4272 56.8009 94.4441 56.8263C94.4949 56.8856 94.5541 56.9702 94.6302 57.0718C94.7064 57.1734 94.7994 57.3004 94.9094 57.4443C94.9855 57.5544 95.0616 57.656 95.1293 57.7661C95.1631 57.8253 95.2054 57.8846 95.2477 57.9439C95.3154 58.0455 95.3831 58.1471 95.4592 58.2656C95.4761 58.291 95.5015 58.3248 95.5184 58.3502C95.5438 58.3926 95.5692 58.4434 95.5945 58.4857C95.6199 58.5196 95.6368 58.545 95.6537 58.5873C95.7468 58.7397 95.8314 58.8836 95.916 59.036C96.2374 59.5948 96.5165 60.1705 96.7703 60.7716L97.9545 63.1591L98.3606 63.9634L98.6059 64.4545L99.1641 65.572C99.2318 65.7329 99.2741 65.9107 99.2995 66.08C99.2995 66.08 99.2995 66.0885 99.2995 66.097C99.3079 66.2155 99.3164 66.3171 99.3164 66.3594C99.3333 66.3509 99.3333 66.3594 99.3333 66.3763Z" fill="#D6F7FF"/>
<path d="M98.589 66.2155C98.589 66.9605 98.1999 67.6802 97.5147 68.0781C97.3878 68.1543 97.2609 68.2136 97.1256 68.2644C96.9226 68.349 96.7111 68.4252 96.4912 68.476C96.4912 68.476 96.4827 68.476 96.4743 68.4845C96.4743 68.4845 96.4404 68.4929 96.415 68.4929C96.3135 68.5183 96.0852 68.5522 95.6453 68.5607H95.6199C95.5523 68.5607 95.4846 68.5607 95.4084 68.5607C95.2816 68.5607 95.1462 68.5607 94.994 68.5522C94.3173 68.5437 93.353 68.4845 91.9826 68.3406C89.8087 67.9257 87.5079 67.1722 85.6893 66.5965C85.1564 66.4272 84.9703 65.7414 84.5135 65.6398H84.5051L55.872 50.9253H55.8551L28.6346 35.1694L27.5434 34.5344C27.5434 34.5344 18.8309 28.6334 18.5179 22.3344C18.5094 22.2074 18.5094 22.072 18.5094 21.945V21.928L19.3299 22.4022L19.6175 22.5715L27.2981 30.7923C27.2981 30.7923 79.5482 61.2204 85.5116 64.0904C89.0136 65.7837 92.9131 66.224 95.5353 66.3002C97.3709 66.3425 98.589 66.2155 98.589 66.2155Z" fill="#EFAD3C"/>
<path d="M93.04 55.8781C93.4037 56.2845 92.7101 56.403 92.304 56.293C92.2956 56.293 90.3078 55.3702 90.2993 55.3702L35.74 23.9346C35.2071 23.6298 25.1158 18.5331 20.8271 16.1456C20.9879 16.1371 21.1486 16.1202 21.3008 16.1117C22.3497 16.1117 23.3817 16.2472 24.3883 16.5181C25.3864 16.789 31.4007 19.3966 32.3057 19.9216L88.9882 52.5847C90.5108 53.4737 91.8811 54.5828 93.04 55.8781Z" fill="#E6FFFF"/>
<path d="M33.0586 21.437L34.6742 12.4627C34.6911 12.4119 34.7081 12.1494 34.7504 12.0055L30.6817 19.7776C31.2653 19.9977 32.5003 21.1915 33.0586 21.437Z" fill="#E17B29"/>
<path d="M33.084 21.4454L34.7504 12.0055C34.0398 11.1419 31.9674 10.4815 31.6798 10.3715L25.1073 18.1605C25.2257 18.1859 25.3442 18.2198 25.4626 18.2536C27.8226 18.6854 30.8593 20.4633 33.084 21.4454Z" fill="#ED9029"/>
<path d="M31.3837 20.0485L33.6845 11.1758L32.4326 10.6339L27.0613 18.5923C28.5162 18.9733 29.9711 19.4728 31.3837 20.0485Z" fill="#F29C29"/>
<path d="M33.5577 21.6571L34.7504 11.997C34.5812 11.6922 33.6846 11.1758 33.6846 11.1758L30.5379 19.7099C31.3415 20.0231 32.7879 21.31 33.5577 21.6571Z" fill="#FFC929"/>
<path d="M96.4319 59.9927L97.3116 61.8299C96.322 62.3549 94.7317 63.0237 93.7251 63.083C92.3632 63.1676 91.0014 62.9052 89.7495 62.3633L85.224 60.3907C85.0041 60.2637 84.7757 60.1367 84.5558 60.0012C83.9214 59.6456 60.3382 46.1249 59.7207 45.7693C58.7733 45.219 57.826 44.6771 56.887 44.1268C55.6859 43.4326 54.4932 42.7468 53.3005 42.0526C51.9302 41.2567 50.5514 40.4693 49.1811 39.6735C47.7008 38.8184 46.2205 37.9718 44.7486 37.1167C43.243 36.2446 37.6686 32.9936 36.1714 32.1215C34.708 31.2749 33.2531 30.4367 31.7898 29.5901C30.4533 28.8112 29.1083 28.0408 27.7718 27.2618C26.6214 26.593 25.471 25.9326 24.3206 25.2723C23.4325 24.7643 22.5528 24.2563 21.673 23.7398C21.1317 23.4266 20.5819 23.1133 20.0405 22.8001C19.9982 22.7747 19.939 22.7578 19.9051 22.7239C19.736 22.5461 19.0931 21.691 19.22 21.5132C19.2961 21.4031 21.377 18.0251 22.8996 19.1426C24.0584 19.9977 26.816 21.437 26.926 21.4963L58.4773 39.7412L60.6512 40.9943C63.9163 42.7383 89.7748 57.2158 91.805 57.6391C94.1227 58.1217 94.3426 56.657 94.3595 56.6909C94.867 57.3343 95.1885 57.783 95.2731 57.9354C95.5776 58.5111 96.1782 59.4001 96.4319 59.9927Z" fill="#E6FFFF"/>
<path d="M84.4966 65.6482L55.8551 50.9252L28.6346 35.1694L27.5434 34.5344C27.5434 34.5344 18.8309 28.6334 18.5179 22.3344C18.9916 22.8593 19.4568 23.5366 19.7952 24.3833C20.8018 26.8978 25.8601 31.4781 26.4692 32.257C27.0613 33.0359 84.0313 65.3858 84.4966 65.6482Z" fill="#C98C1F"/>
<path d="M96.4912 68.476C96.4827 68.476 96.4743 68.4845 96.4658 68.4845C96.4658 68.4845 96.432 68.4929 96.4066 68.4929C96.3051 68.5183 96.0767 68.5522 95.6369 68.5607H95.6115C95.5438 68.5607 95.4761 68.5607 95.4 68.5607C95.2731 68.5607 95.7299 68.73 95.5776 68.7215C94.9009 68.7131 93.3445 68.4845 91.9742 68.3406C90.8407 68.222 89.4112 68.0866 87.6517 67.7818C83.2109 67.0198 55.8466 50.9168 55.8466 50.9168H55.8635C56.1088 50.9676 83.0332 64.9117 84.0145 65.3689C84.2682 65.4874 84.5389 65.6059 84.8011 65.7075C86.0361 66.224 87.3726 66.6811 88.7852 66.8589C92.118 67.2653 93.759 67.2823 95.1885 67.4939C95.8145 67.587 96.3136 68.4422 96.4405 68.4591C96.4827 68.4675 96.4912 68.476 96.4912 68.476Z" fill="#C98C1F"/>
<path d="M99.3249 66.3763C99.3249 66.5457 99.308 66.7235 99.2657 66.8843C98.2844 67.9342 96.2205 67.7987 95.197 67.6548C95.2308 67.1976 95.3831 66.7235 95.6284 66.2578C95.8567 65.8006 96.1782 65.3604 96.5504 64.9963C96.8549 64.6831 97.2102 64.4206 97.5739 64.2259C97.853 64.082 98.1153 63.9973 98.3606 63.955L98.6059 64.446L99.1641 65.5636C99.2318 65.7244 99.2826 65.8938 99.308 66.0716C99.308 66.0716 99.308 66.08 99.308 66.0885C99.3164 66.207 99.3249 66.3001 99.3249 66.3509C99.3249 66.3509 99.3249 66.3594 99.3249 66.3763Z" fill="#30485C"/>
<path d="M97.0072 61.3304L96.9141 61.5421L96.4827 62.4988L96.432 62.6173L94.994 62.6088L92.7101 62.5919H91.898L88.0324 60.9748C86.865 60.4838 86.7128 58.8836 87.7701 58.1894L88.1339 57.9523L91.6189 59.0614L92.211 59.0106L93.6829 58.8752L94.3934 58.8074L94.6895 58.5111L95.2562 57.9523L96.0259 59.1715L97.0072 61.3304Z" fill="url(#paint4_linear_246_12253)"/>
<path d="M96.3558 60.2128H96.4996L96.0344 59.1715L95.2646 57.9523L94.6894 58.5111L94.3934 58.799L93.6828 58.8667L93.243 58.909L96.3558 60.2128Z" fill="url(#paint5_linear_246_12253)"/>
<path d="M96.4573 60.1028L96.3981 60.2213L95.9667 61.178L95.916 61.2965L94.478 61.2881L92.1941 61.2711H91.3821L87.5164 59.6541C87.3472 59.5779 87.2034 59.4763 87.0765 59.3662C87.0258 60.0097 87.3472 60.6785 88.0324 60.9664L91.898 62.5834H92.7101L94.994 62.6004L96.432 62.6088L96.4827 62.4903L96.9141 61.5336L97.0072 61.3219L96.4573 60.1028Z" fill="#6F94A3"/>
<path d="M26.2831 27.4905L9.28934 28.4641L5.39829 26.4237L5.29678 25.9242L11.7086 26.1867L26.2746 27.101C26.2746 27.2957 26.2831 27.4227 26.2831 27.4905Z" fill="#E17B29"/>
<path d="M26.2746 27.101L9.35701 28.0661L5.29678 25.9326L18.6955 22.5715C18.6955 22.563 24.0669 25.2553 26.2746 27.101Z" fill="#ED9029"/>
<path d="M7.36919 27.0163L24.1853 25.6363L26.2746 27.101L9.34855 28.0577L7.36919 27.0163Z" fill="#FFC929"/>
<path d="M6.05807 26.3221L19.5922 22.9779L24.1853 25.6363L7.36919 27.0164L6.05807 26.3221Z" fill="#F29C29"/>
<path d="M99.2657 66.8843C99.1303 67.4347 98.7835 67.9342 98.2591 68.239C97.9376 68.4252 97.5824 68.5522 97.1933 68.6284C96.9395 68.6792 96.6688 68.7131 96.3812 68.73H96.3558C96.2882 68.73 96.212 68.7385 96.1444 68.7385C96.0936 68.7385 96.0344 68.7385 95.9752 68.7385C95.8991 68.7385 95.8145 68.7385 95.7214 68.73C95.603 68.7215 95.4761 68.7215 95.3492 68.7046C95.3323 68.6707 95.3154 68.6284 95.3069 68.5945C95.2223 68.3914 95.1801 68.1543 95.1801 67.8918C95.1801 67.8156 95.1801 67.7394 95.1885 67.6632C96.2289 67.7987 98.2844 67.9342 99.2657 66.8843Z" fill="#111C2E"/>
<path d="M33.5577 24.4341C33.4815 24.4849 33.1601 24.8066 32.9232 24.8405C32.8979 24.8574 32.881 24.8574 32.8556 24.8574L32.8387 24.8066L29.0745 22.6308L28.5754 22.3344L23.4832 19.2781L21.7238 18.2706L20.8441 17.7626L18.0358 -2.4381L18.5094 -2.66669L24.5913 0.889179L33.5577 24.4341Z" fill="#C0D9FF"/>
<path d="M32.8471 24.8066L29.083 22.6307L28.5839 22.3344L23.4917 19.2781L21.7407 18.279L20.861 17.7711L20.1758 17.3731L20.1251 17.3477L18.0358 -2.43811L19.2115 -1.7608L21.7238 -0.287658L24.2361 1.17702L32.8471 24.8066Z" fill="#D1EBFF"/>
<path d="M32.8471 24.8066L29.0829 22.6307L28.5839 22.3344L21.7238 -0.287659L24.2361 1.17702L32.8471 24.8066Z" fill="#DAF3FF"/>
<path d="M21.7407 18.279L20.861 17.7711L20.1758 17.3731L18.0358 -2.43811L19.1608 -2.13332L19.2115 -1.7608L21.7407 18.279Z" fill="#C98C1F"/>
<path d="M28.9814 63.3877L32.2635 57.7068L26.5115 54.5066V54.515C26.0716 54.2864 25.4795 54.3203 24.8282 54.6928C23.5255 55.4463 22.502 57.2496 22.5443 58.7313C22.5697 59.4424 23.7539 60.4753 24.7267 61.0172L24.7605 61.0341C24.769 61.0426 24.7774 61.0426 24.7943 61.051L28.9814 63.3877Z" fill="#9AB1EB"/>
<path d="M31.646 58.0624L31.5698 58.0201C31.0285 57.7237 30.4025 57.7068 29.8358 57.91C29.0491 58.1809 27.6111 58.7228 26.7991 58.9683C25.1073 59.4678 22.7896 58.9344 22.6458 58.7312C21.8676 57.6306 25.2342 54.5065 25.2342 54.5065C25.0989 54.5573 24.9551 54.6166 24.8197 54.7013C24.143 55.0907 23.5424 55.7596 23.128 56.53C22.7388 57.2412 22.5189 58.0285 22.5358 58.7397C22.5443 59.0106 23.2464 59.6964 24.143 60.2891L28.4993 62.7104C28.7023 62.6512 28.9138 62.5665 29.1337 62.4395C29.3705 62.304 29.6074 62.1263 29.8273 61.9315L31.5529 58.9429C31.6121 58.6296 31.646 58.3418 31.646 58.0624Z" fill="#A4CBEB"/>
<path d="M32.255 57.7069L29.7089 56.2845V56.293C29.269 56.0644 28.6769 56.0982 28.0256 56.4708C26.7229 57.2243 26.1816 58.9768 26.1816 60.4499C26.1816 61.5844 26.9513 62.2533 27.9241 62.7867L27.9579 62.8036C27.9664 62.8121 27.9748 62.8121 27.9918 62.8205L28.9814 63.3708L32.255 57.7069Z" fill="#FFD800"/>
<path d="M32.9571 59.18C32.9994 60.6616 31.9843 62.4649 30.6732 63.2184C29.3706 63.9719 28.2709 63.3793 28.2286 61.8977C28.1863 60.4161 29.2014 58.6127 30.5125 57.8592C31.8236 57.1057 32.9148 57.6984 32.9571 59.18Z" fill="#FAA808"/>
<path d="M32.8725 59.2308C32.9148 60.6531 31.9336 62.3887 30.6817 63.1083C29.4298 63.828 28.3724 63.2607 28.3301 61.8384C28.2878 60.416 29.269 58.6804 30.5209 57.9608C31.7728 57.2412 32.8217 57.8084 32.8725 59.2308Z" fill="#EDEDED"/>
<path d="M32.3565 59.5525C32.3903 60.6616 31.629 62.0078 30.6563 62.5665C29.6835 63.1253 28.863 62.6851 28.8292 61.5844C28.7953 60.4753 29.5566 59.1292 30.5294 58.5704C31.5106 58.0116 32.3311 58.4519 32.3565 59.5525Z" fill="#DEF7FF"/>
<path d="M32.2465 59.6203C32.2804 60.6531 31.5698 61.9062 30.6647 62.4311C29.7597 62.956 28.9984 62.5411 28.9645 61.5167C28.9307 60.4838 29.6412 59.2308 30.5548 58.7059C31.4514 58.181 32.2127 58.5958 32.2465 59.6203Z" fill="#071C26"/>
<path d="M30.5209 58.7144C29.6243 59.2393 28.9222 60.4838 28.9561 61.5082C28.9645 61.6522 28.9814 61.7876 29.0153 61.9062L30.2587 62.5919C30.3856 62.5581 30.5209 62.4988 30.6563 62.4226C31.5529 61.9062 32.2465 60.687 32.2381 59.671L30.5209 58.7144Z" fill="#56757E"/>
<path d="M29.6328 59.5525C29.3198 59.9843 29.0914 60.4923 28.9984 60.9918L31.0538 62.1347C31.4345 61.8045 31.7644 61.3474 31.9759 60.8563L29.6328 59.5525Z" fill="#E2FF9B"/>
<path d="M29.6328 59.5525C29.3198 59.9843 29.0914 60.4923 28.9984 60.9918L31.0538 62.1347C31.4345 61.8045 31.7644 61.3474 31.9759 60.8563L29.6328 59.5525Z" fill="#8DA9B1"/>
<path d="M31.7052 59.6033C31.7306 60.4245 31.1638 61.4235 30.4448 61.8384C29.7258 62.2532 29.1168 61.9315 29.0914 61.1103C29.066 60.2891 29.6328 59.29 30.3518 58.8752C31.0792 58.4603 31.6798 58.7905 31.7052 59.6033Z" fill="#56757E"/>
<path d="M31.4768 59.6626C31.4937 60.3653 31.0116 61.2204 30.3941 61.576C29.7766 61.9316 29.2521 61.6522 29.2352 60.9495C29.2098 60.2468 29.7004 59.3917 30.3179 59.0361C30.9354 58.6805 31.4514 58.9599 31.4768 59.6626Z" fill="#071C26"/>
<path d="M30.817 60.4161C30.817 60.5854 30.707 60.7886 30.5632 60.8733C30.4194 60.9579 30.2926 60.8902 30.2841 60.7209C30.2841 60.5515 30.3941 60.3483 30.5463 60.2637C30.6901 60.179 30.817 60.2468 30.817 60.4161Z" fill="#56757E"/>
<path d="M48.1576 59.7472L51.4396 54.0663L45.6791 50.866C45.2393 50.6374 44.6472 50.6798 43.9958 51.0438C42.6932 51.7973 41.6697 53.6007 41.712 55.0823C41.7373 55.7934 42.9216 56.8263 43.8943 57.3682L43.9282 57.3851C43.9366 57.3851 43.9451 57.3936 43.9535 57.4021L48.1576 59.7472Z" fill="#9AB1EB"/>
<path d="M50.8221 54.4219L50.7459 54.3795C50.213 54.0832 49.5871 54.0663 49.0119 54.2695C48.2252 54.5404 46.7872 55.0822 45.9667 55.3193C44.2834 55.8188 41.9911 55.2854 41.8388 55.0822C41.0606 53.9816 44.4018 50.8575 44.4018 50.8575C44.2665 50.9083 44.1227 50.9676 43.9874 51.0523C43.3107 51.4417 42.7101 52.1106 42.2956 52.881C41.9065 53.5922 41.6866 54.3795 41.7035 55.0907C41.7119 55.3616 42.414 56.0389 43.3107 56.6316L47.6669 59.053C47.87 58.9937 48.0814 58.909 48.3014 58.782C48.5382 58.6466 48.775 58.4688 48.995 58.2741L50.7206 55.2854C50.7882 54.9976 50.8305 54.7013 50.8221 54.4219Z" fill="#A4CBEB"/>
<path d="M51.448 54.0833L48.9019 52.6609V52.6694C48.4621 52.4408 47.87 52.4747 47.2186 52.8472C45.916 53.6007 45.3746 55.3532 45.3746 56.8263C45.3746 57.9608 46.1444 58.6297 47.1171 59.1631L47.151 59.18C47.1594 59.1885 47.1679 59.1885 47.1848 59.1969L48.1745 59.7472L51.448 54.0833Z" fill="#FFD800"/>
<path d="M52.1417 55.5394C52.184 57.021 51.1689 58.8244 49.8578 59.5779C48.5551 60.3314 47.4555 59.7387 47.4132 58.2571C47.3709 56.7755 48.3859 54.9722 49.6971 54.2187C50.9997 53.4652 52.0994 54.0578 52.1417 55.5394Z" fill="#FAA808"/>
<path d="M52.0486 55.5902C52.0909 57.0126 51.1097 58.7482 49.8578 59.4678C48.6059 60.1875 47.5485 59.6202 47.5062 58.1979C47.4639 56.7755 48.4452 55.0399 49.6971 54.3203C50.9574 53.6007 52.0063 54.1679 52.0486 55.5902Z" fill="#EDEDED"/>
<path d="M51.5411 55.912C51.5749 57.0126 50.8136 58.3672 49.8408 58.926C48.8681 59.4848 48.056 59.0445 48.0222 57.9439C47.9884 56.8433 48.7497 55.4887 49.7224 54.9299C50.6867 54.3711 51.5072 54.8114 51.5411 55.912Z" fill="#DEF7FF"/>
<path d="M51.4226 55.9797C51.4565 57.0042 50.7459 58.2657 49.8408 58.7821C48.9358 59.307 48.1745 58.8922 48.1406 57.8677C48.1068 56.8433 48.8173 55.5818 49.7224 55.0654C50.6275 54.5405 51.3888 54.9553 51.4226 55.9797Z" fill="#071C26"/>
<path d="M49.697 55.0739C48.8004 55.6072 48.0983 56.8518 48.1322 57.8677C48.1322 58.0117 48.1575 58.1471 48.1914 58.2657L49.4348 58.9599C49.5617 58.926 49.697 58.8668 49.8324 58.7906C50.729 58.2741 51.4226 57.055 51.4142 56.039L49.697 55.0739Z" fill="#56757E"/>
<path d="M48.8089 55.912C48.4959 56.3438 48.2675 56.8517 48.1745 57.3513L50.2384 58.4942C50.6191 58.1556 50.9489 57.7069 51.1604 57.2158L48.8089 55.912Z" fill="#E2FF9B"/>
<path d="M48.8089 55.912C48.4959 56.3438 48.2675 56.8517 48.1745 57.3513L50.2384 58.4942C50.6191 58.1556 50.9489 57.7069 51.1604 57.2158L48.8089 55.912Z" fill="#8DA9B1"/>
<path d="M50.8813 55.9628C50.9067 56.784 50.3399 57.783 49.6209 58.1979C48.9019 58.6127 48.2929 58.2826 48.2675 57.4698C48.2421 56.657 48.8089 55.658 49.5279 55.2347C50.2553 54.8198 50.8644 55.15 50.8813 55.9628Z" fill="#56757E"/>
<path d="M50.6529 56.0221C50.6783 56.7248 50.1876 57.5799 49.5701 57.9355C48.9527 58.2911 48.4367 58.0117 48.4113 57.309C48.3944 56.6063 48.8765 55.7512 49.494 55.3956C50.1115 55.04 50.636 55.3194 50.6529 56.0221Z" fill="#071C26"/>
<path d="M50.0016 56.7756C50.01 56.9449 49.8916 57.1481 49.7478 57.2328C49.604 57.3174 49.4771 57.2497 49.4687 57.0804C49.4687 56.911 49.5786 56.7078 49.7224 56.6232C49.8747 56.5385 49.9931 56.6062 50.0016 56.7756Z" fill="#56757E"/>
<path d="M62.9351 52.8895L6.80245 60.9409L-0.472119 57.1226L-0.666672 56.1913L11.3195 56.6824L62.9097 52.1529C62.9182 52.5169 62.9351 52.754 62.9351 52.8895Z" fill="#FAA808"/>
<path d="M62.9097 52.1529L6.92088 60.1874L-0.666672 56.1913L29.9288 48.8171L46.2628 42.4589C46.2712 42.4589 58.7903 48.6986 62.9097 52.1529Z" fill="#CCE6FF"/>
<path d="M58.1305 48.9188L2.97061 58.1047L6.92087 60.1875L62.9097 52.1529L58.1305 48.9188Z" fill="#DEF8FF"/>
<path d="M49.8747 44.4062L0.619064 56.8687L2.97061 58.1047L58.1305 48.9188L49.8747 44.4062Z" fill="#D1EBFF"/>
<path d="M91.3567 62.6173L91.0183 62.5665L91.5682 58.6212L91.9065 58.672L91.3567 62.6173Z" fill="#E6FFFF"/>
<path d="M94.4083 58.1603L94.1094 58.3191L96.5759 62.9706L96.8748 62.8119L94.4083 58.1603Z" fill="#E6FFFF"/>
<path d="M42.1518 35.7451L41.6866 36.778L40.0287 35.8129L42.211 30.9532L42.8285 31.3172L41.1114 35.144L42.1518 35.7451Z" fill="#F29C29"/>
<path d="M45.5607 35.9653C44.9263 37.3791 43.8774 38.1242 43.1161 37.6839C42.3633 37.2437 42.2787 35.8467 42.9131 34.4244C43.5475 33.0105 44.5879 32.2909 45.3408 32.7311C46.0936 33.1714 46.1866 34.5599 45.5607 35.9653ZM43.5475 34.8054C43.1838 35.6266 43.2176 36.4394 43.5898 36.6595C43.9704 36.8796 44.5541 36.4224 44.9178 35.6012C45.29 34.78 45.2646 33.9926 44.884 33.7725C44.5033 33.5524 43.9112 33.9841 43.5475 34.8054Z" fill="#F29C29"/>
<path d="M48.0138 37.3537L47.1594 39.2502C46.7365 39.4619 46.2036 39.4873 45.8568 39.2841C45.1124 38.8523 45.0278 37.4553 45.6707 36.033C46.3051 34.6276 47.354 33.8995 48.1237 34.3482C48.4875 34.5599 48.7497 35.0594 48.8004 35.652L48.073 36.287C48.0391 35.8552 47.8869 35.5081 47.6585 35.3811C47.2609 35.144 46.6688 35.5928 46.3051 36.4055C45.9329 37.2352 45.9667 38.0395 46.3728 38.2766C46.4996 38.3528 46.7026 38.3528 46.9141 38.2935L47.4809 37.0405L48.0138 37.3537Z" fill="#F29C29"/>
<path d="M47.3286 40.0799L49.511 35.2202L50.1285 35.5843L47.9461 40.444L47.3286 40.0799Z" fill="#F29C29"/>
<path d="M52.3024 37.4638L51.6341 38.2935C51.5073 37.8448 51.2789 37.4469 51.0843 37.3284C50.9236 37.2352 50.7629 37.286 50.6529 37.5231C50.2723 38.3613 51.7779 38.6407 50.9913 40.3932C50.5514 41.3668 49.8916 41.6293 49.3503 41.3076C48.9442 41.0705 48.6566 40.5202 48.5805 39.8767L49.2488 39.064C49.2995 39.6481 49.5533 40.1561 49.807 40.3085C50.0016 40.4186 50.1877 40.3509 50.3146 40.0715C50.7037 39.2079 49.1811 38.9708 49.9508 37.2522C50.3484 36.3547 50.9997 36.0161 51.5834 36.3547C51.9387 36.5664 52.2009 36.9897 52.3024 37.4638Z" fill="#F29C29"/>
<path d="M53.5458 38.8269L51.8118 42.6961L51.1943 42.332L52.9283 38.4629L52.2009 38.0396L52.6492 37.0405L54.7385 38.2597L54.2902 39.2587L53.5458 38.8269Z" fill="#F29C29"/>
<path d="M52.8099 43.2802L54.9923 38.4205L55.6098 38.7846L53.4274 43.6443L52.8099 43.2802Z" fill="#F29C29"/>
<path d="M57.8767 41.0874L57.1408 41.7224C57.1577 41.2398 57.0224 40.8588 56.8109 40.7318C56.4218 40.5032 55.8551 40.9435 55.4998 41.7393C55.1361 42.5521 55.153 43.3395 55.5421 43.5681C55.7451 43.6866 56.0835 43.6019 56.4134 43.3564L56.4303 44.33C55.9312 44.711 55.3814 44.838 55.0261 44.6264C54.2902 44.1946 54.2225 42.7976 54.8654 41.3753C55.4914 39.9699 56.5318 39.2502 57.2762 39.682C57.623 39.9106 57.8598 40.444 57.8767 41.0874Z" fill="#F29C29"/>
<path d="M60.1944 42.0695L59.5262 42.8992C59.3993 42.4505 59.1709 42.0526 58.9764 41.934C58.8157 41.8409 58.6549 41.8917 58.545 42.1287C58.1643 42.9669 59.67 43.2463 58.8833 44.9988C58.4435 45.9725 57.7837 46.2349 57.2423 45.9132C56.8363 45.6761 56.5487 45.1258 56.4726 44.4824L57.1408 43.6696C57.2 44.2538 57.4453 44.7618 57.6991 44.9142C57.8936 45.0242 58.0797 44.9565 58.2066 44.6771C58.5957 43.8136 57.0731 43.5765 57.8429 41.8578C58.2489 40.9604 58.8918 40.6217 59.4754 40.9604C59.8222 41.1721 60.0929 41.6038 60.1944 42.0695Z" fill="#F29C29"/>
<path d="M83.989 56.2255L83.693 57.0721L83.6422 57.2245L83.4984 57.6309L83.4308 57.8087C83.3885 57.9357 83.177 58.0203 83.067 57.9526L82.3819 57.5632C82.2634 57.4954 82.2127 57.3769 82.2465 57.2414C82.2465 57.233 82.255 57.216 82.255 57.216L82.5426 56.4117L82.8217 55.6159C82.864 55.4889 83.067 55.4127 83.177 55.472L83.2278 55.4974L83.2616 55.5228L83.8706 55.853C83.9298 55.8868 83.9721 55.9376 83.9975 55.9884C84.0229 56.0646 84.0144 56.1493 83.989 56.2255Z" fill="url(#paint6_linear_246_12253)"/>
<path d="M82.771 57.3936C82.6526 57.3258 82.6018 57.2073 82.6357 57.0719C82.6357 57.0634 82.6441 57.0465 82.6441 57.0465L82.9317 56.2422L83.2024 55.4802L83.1855 55.4717C83.0671 55.404 82.8725 55.4886 82.8302 55.6156L82.5511 56.4115L82.2635 57.2158C82.2635 57.2158 82.255 57.2327 82.255 57.2412C82.2212 57.3766 82.2719 57.4952 82.3904 57.5629L83.0755 57.9524C83.1855 58.0201 83.3885 57.9354 83.4392 57.8084L83.4477 57.7746L82.771 57.3936Z" fill="#6F94A3"/>
<path d="M81.2822 54.7606L80.9862 55.6072L80.9354 55.7596L80.7916 56.166L80.7239 56.3438C80.6816 56.4708 80.4702 56.5554 80.3602 56.4877L79.6751 56.0983C79.5566 56.0305 79.5059 55.912 79.5397 55.7765C79.5397 55.7681 79.5482 55.7511 79.5482 55.7511L79.8358 54.9468L80.1149 54.151C80.1572 54.024 80.3602 53.9478 80.4702 54.0071L80.5209 54.0325L80.5548 54.0579L81.1638 54.3881C81.223 54.4219 81.2653 54.4727 81.2907 54.5235C81.3076 54.6082 81.3076 54.6844 81.2822 54.7606Z" fill="url(#paint7_linear_246_12253)"/>
<path d="M80.0557 55.9379C79.9373 55.8702 79.8865 55.7517 79.9204 55.6162C79.9204 55.6078 79.9288 55.5908 79.9288 55.5908L80.2164 54.7865L80.4871 54.0246L80.4702 54.0161C80.3517 53.9484 80.1572 54.033 80.1149 54.16L79.8358 54.9558L79.5482 55.7602C79.5482 55.7602 79.5397 55.7771 79.5397 55.7856C79.5059 55.921 79.5566 56.0395 79.6751 56.1073L80.3602 56.4967C80.4702 56.5645 80.6732 56.4798 80.7239 56.3528L80.7324 56.3189L80.0557 55.9379Z" fill="#6F94A3"/>
<path d="M77.4335 52.9995L77.1374 53.8462L77.0867 53.9986L76.9429 54.4049L76.8752 54.5827C76.8329 54.7097 76.6214 54.7944 76.5115 54.7267L75.8263 54.3372C75.7079 54.2695 75.6571 54.1509 75.691 54.0155C75.691 54.007 75.6994 53.9901 75.6994 53.9901L75.987 53.1858L76.2662 52.39C76.3085 52.263 76.5115 52.1868 76.6299 52.246L76.6807 52.2714L76.7145 52.2968L77.3235 52.627C77.3827 52.6609 77.425 52.7117 77.4504 52.7625C77.4589 52.8471 77.4589 52.9233 77.4335 52.9995Z" fill="url(#paint8_linear_246_12253)"/>
<path d="M76.207 54.1769C76.0885 54.1092 76.0378 53.9906 76.0716 53.8552C76.0716 53.8467 76.0801 53.8298 76.0801 53.8298L76.3677 53.0255L76.6384 52.2635L76.6214 52.255C76.503 52.1873 76.3085 52.272 76.2662 52.399L75.987 53.1948L75.6994 53.9991C75.6994 53.9991 75.691 54.016 75.691 54.0245C75.6571 54.16 75.7079 54.2785 75.8263 54.3462L76.5115 54.7357C76.6214 54.8034 76.8245 54.7188 76.8752 54.5918L76.8837 54.5579L76.207 54.1769Z" fill="#6F94A3"/>
<path d="M25.968 12.4917C25.9492 12.5011 25.9305 12.5011 25.9118 12.5011L25.9024 12.4542L25.968 12.4917Z" fill="#EDCE7D"/>
<path d="M21.3431 12.6235C21.3347 12.7505 21.3347 12.886 21.3431 13.0214C21.3431 13.0384 21.3431 13.0553 21.3516 13.0722C21.3685 13.3432 21.4193 13.6141 21.5039 13.885C21.5123 13.9019 21.5123 13.9189 21.5208 13.9358C21.6054 14.2152 21.7238 14.4861 21.8591 14.7486C21.8676 14.7655 21.876 14.7824 21.8845 14.7994C22.0283 15.0618 22.189 15.3073 22.3751 15.5359C22.3836 15.5529 22.4005 15.5613 22.4089 15.5783C22.595 15.7984 22.7896 15.9931 23.0095 16.1624C23.0264 16.1709 23.0349 16.1794 23.0518 16.1963C23.1533 16.2725 23.2548 16.3402 23.3648 16.408C23.4748 16.4757 23.5847 16.5265 23.6947 16.5688C23.7116 16.5773 23.7201 16.5858 23.737 16.5858C23.9569 16.6704 24.1684 16.7128 24.3629 16.7128C24.3714 16.7128 24.3883 16.7128 24.4052 16.7128C24.5998 16.7128 24.7859 16.662 24.955 16.5773C24.9635 16.5773 24.9804 16.5688 24.9889 16.5604C25.1581 16.4757 25.2934 16.3487 25.4118 16.1878C25.4203 16.1794 25.4287 16.1709 25.4372 16.154C25.5472 15.9931 25.6317 15.7899 25.6825 15.5613C25.6825 15.5444 25.691 15.5359 25.691 15.519C25.7163 15.4174 25.7333 15.2989 25.7417 15.1804C25.7502 15.0449 25.7502 14.9094 25.7417 14.7824C25.7417 14.7655 25.7417 14.7486 25.7333 14.7316C25.7163 14.4607 25.6571 14.1813 25.581 13.9104C25.5725 13.8935 25.5725 13.8765 25.5641 13.8596C25.4795 13.5802 25.3611 13.3008 25.2173 13.0384C25.2088 13.0214 25.2003 13.0045 25.1919 12.9876C25.0481 12.7251 24.8874 12.4796 24.7013 12.251C24.6928 12.2341 24.6759 12.2171 24.6674 12.2087C24.4814 11.9885 24.2868 11.7938 24.0753 11.633C24.0584 11.6245 24.05 11.6076 24.033 11.5991C23.94 11.5229 23.8385 11.4636 23.737 11.4044C23.6186 11.3366 23.5086 11.2774 23.3902 11.235C23.3732 11.2266 23.3648 11.2266 23.3479 11.2181C23.1279 11.1334 22.9165 11.0911 22.7219 11.0996C22.7135 11.0996 22.6965 11.0996 22.6796 11.0996C22.4851 11.0996 22.299 11.1504 22.1298 11.235C22.1213 11.2435 22.1129 11.2435 22.096 11.252C21.9353 11.3451 21.7915 11.4636 21.6815 11.6245C21.673 11.633 21.6646 11.6414 21.6561 11.6584C21.5461 11.8192 21.4616 12.0139 21.4108 12.251C21.4108 12.2595 21.4023 12.2764 21.4023 12.2933C21.3685 12.3949 21.3516 12.505 21.3431 12.6235Z" fill="#E79A1A"/>
<path d="M21.8845 13.9612L24.6336 12.9199L23.9738 15.9931L23.4917 14.1729L21.8845 13.9612Z" fill="#DAF3FF"/>
<path d="M78.3639 52.7625L77.2643 55.8273L76.8075 57.8423L76.6722 58.2318C76.5707 58.5112 76.1393 58.6805 75.9024 58.545L74.4306 57.7153C74.1684 57.5799 74.0584 57.3089 74.143 57.0295C74.1515 57.0126 74.1599 56.9872 74.1599 56.9872L74.8112 54.4304L75.8686 51.501C75.9616 51.2386 76.393 51.0608 76.6383 51.1962L76.7398 51.2555L76.816 51.2978L78.1102 52.0175C78.2286 52.0937 78.3301 52.2037 78.3809 52.3138C78.4231 52.4239 78.4147 52.5932 78.3639 52.7625Z" stroke="#B8DFEF" stroke-width="0.3004" stroke-miterlimit="10"/>
<path d="M35.038 28.6249L34.7419 29.4715L34.6912 29.6239L34.5474 30.0303L34.4797 30.2081C34.4374 30.3351 34.2259 30.4198 34.116 30.352L33.4308 29.9626C33.3124 29.8949 33.2616 29.7763 33.2954 29.6409C33.2954 29.6324 33.3039 29.6155 33.3039 29.6155L33.5915 28.8112L33.8706 28.0153C33.9129 27.8883 34.116 27.8121 34.2344 27.8714L34.2851 27.8968L34.319 27.9222L34.928 28.2524C34.9872 28.2862 35.0295 28.337 35.0549 28.3878C35.0718 28.4725 35.0718 28.5487 35.038 28.6249Z" fill="url(#paint9_linear_246_12253)"/>
<path d="M33.8199 29.8017C33.7015 29.734 33.6507 29.6155 33.6845 29.48C33.6845 29.4715 33.693 29.4546 33.693 29.4546L33.9721 28.6588L34.2428 27.8968L34.2259 27.8883C34.1075 27.8206 33.9129 27.9053 33.8622 28.0323L33.583 28.8281L33.2954 29.6324C33.2954 29.6324 33.287 29.6493 33.287 29.6578C33.2531 29.7933 33.3039 29.9118 33.4223 29.9795L34.1159 30.352C34.2259 30.4198 34.4289 30.3351 34.4797 30.2081L34.4881 30.1743L33.8199 29.8017Z" fill="#6F94A3"/>
<path d="M35.9684 28.3879L34.8688 31.4527L34.412 33.4677L34.2767 33.8571C34.1752 34.1365 33.7438 34.3058 33.5069 34.1704L32.0351 33.3407C31.7728 33.2052 31.6629 32.9343 31.7475 32.6549C31.7559 32.638 31.7644 32.6126 31.7644 32.6126L32.4157 30.0557L33.4731 27.1264C33.5661 26.8639 33.9975 26.6861 34.2428 26.8216L34.3443 26.8809L34.4205 26.9232L35.7062 27.6174C35.8246 27.6936 35.9261 27.8037 35.9769 27.9138C36.0276 28.0492 36.0276 28.2185 35.9684 28.3879Z" stroke="#B8DFEF" stroke-width="0.3004" stroke-miterlimit="10"/>
<path d="M29.9288 48.8087L30.9185 49.1727L43.7167 45.2444L41.7119 44.2284L29.9288 48.8087Z" fill="#ABC3D9"/>
<defs>
<linearGradient id="paint0_linear_246_12253" x1="77.6807" y1="31.0734" x2="78.3526" y2="31.0687" gradientUnits="userSpaceOnUse">
<stop offset="0.1613" stop-color="#3D3D3D"/>
<stop offset="0.1633" stop-color="#5E5E5E"/>
<stop offset="0.5593" stop-color="#5E5E5E"/>
<stop offset="0.5622" stop-color="#7A7A7A"/>
<stop offset="0.8728" stop-color="#7A7A7A"/>
<stop offset="0.8739" stop-color="#7A7A7A"/>
</linearGradient>
<linearGradient id="paint1_linear_246_12253" x1="81.3493" y1="63.8875" x2="82.0213" y2="63.8828" gradientUnits="userSpaceOnUse">
<stop offset="0.1613" stop-color="#3D3D3D"/>
<stop offset="0.1633" stop-color="#5E5E5E"/>
<stop offset="0.5593" stop-color="#5E5E5E"/>
<stop offset="0.5622" stop-color="#7A7A7A"/>
<stop offset="0.8728" stop-color="#7A7A7A"/>
<stop offset="0.8739" stop-color="#7A7A7A"/>
</linearGradient>
<linearGradient id="paint2_linear_246_12253" x1="37.4366" y1="54.9086" x2="38.1085" y2="54.9039" gradientUnits="userSpaceOnUse">
<stop offset="0.1613" stop-color="#3D3D3D"/>
<stop offset="0.1633" stop-color="#5E5E5E"/>
<stop offset="0.5593" stop-color="#5E5E5E"/>
<stop offset="0.5622" stop-color="#7A7A7A"/>
<stop offset="0.8728" stop-color="#7A7A7A"/>
<stop offset="0.8739" stop-color="#7A7A7A"/>
</linearGradient>
<linearGradient id="paint3_linear_246_12253" x1="18.408" y1="23.5633" x2="20.3164" y2="20.1948" gradientUnits="userSpaceOnUse">
<stop offset="0.1656" stop-color="#363636"/>
<stop offset="0.1676" stop-color="#646464"/>
<stop offset="0.5343" stop-color="#646464"/>
<stop offset="0.5417" stop-color="#626262"/>
<stop offset="0.5433" stop-color="#5F5F5F"/>
<stop offset="0.8043" stop-color="#5F5F5F"/>
<stop offset="0.8473" stop-color="#5F5F5F"/>
<stop offset="0.8483" stop-color="#646464"/>
</linearGradient>
<linearGradient id="paint4_linear_246_12253" x1="92.6257" y1="63.1" x2="91.5439" y2="58.4162" gradientUnits="userSpaceOnUse">
<stop offset="0.0837" stop-color="#597E90"/>
<stop offset="0.4241" stop-color="#4D6976"/>
<stop offset="0.9409" stop-color="#3C4B52"/>
</linearGradient>
<linearGradient id="paint5_linear_246_12253" x1="94.9417" y1="60.5805" x2="94.6422" y2="56.2957" gradientUnits="userSpaceOnUse">
<stop stop-color="#92C6B9"/>
<stop offset="0.9409" stop-color="#6F797B"/>
</linearGradient>
<linearGradient id="paint6_linear_246_12253" x1="82.0223" y1="59.0652" x2="83.5879" y2="54.0234" gradientUnits="userSpaceOnUse">
<stop offset="0.0837" stop-color="#597E90"/>
<stop offset="0.4241" stop-color="#4D6976"/>
<stop offset="0.9409" stop-color="#3C4B52"/>
</linearGradient>
<linearGradient id="paint7_linear_246_12253" x1="79.3131" y1="57.6054" x2="80.8787" y2="52.5635" gradientUnits="userSpaceOnUse">
<stop offset="0.0837" stop-color="#597E90"/>
<stop offset="0.4241" stop-color="#4D6976"/>
<stop offset="0.9409" stop-color="#3C4B52"/>
</linearGradient>
<linearGradient id="paint8_linear_246_12253" x1="75.4626" y1="55.8459" x2="77.0281" y2="50.8041" gradientUnits="userSpaceOnUse">
<stop offset="0.0837" stop-color="#597E90"/>
<stop offset="0.4241" stop-color="#4D6976"/>
<stop offset="0.9409" stop-color="#3C4B52"/>
</linearGradient>
<linearGradient id="paint9_linear_246_12253" x1="33.0717" y1="31.4713" x2="34.6373" y2="26.4295" gradientUnits="userSpaceOnUse">
<stop offset="0.0837" stop-color="#597E90"/>
<stop offset="0.4241" stop-color="#4D6976"/>
<stop offset="0.9409" stop-color="#3C4B52"/>
</linearGradient>
</defs>
</svg>
