<svg width="90" height="83" viewBox="0 0 90 83" fill="none" xmlns="http://www.w3.org/2000/svg">
<g clip-path="url(#clip0_246_12941)">
<path d="M46.7736 58.9382L46.1728 59.8189L45.6872 60.5349L44.7243 61.9588L43.572 63.6543L42.749 64.8642L42.3457 65.4567L38.8477 63.4567L38.8559 63.4485C38.535 63.2921 28.8395 57.6049 28.642 57.3004C28.535 57.144 28.4444 56.9547 28.3868 56.7572C28.3457 56.5926 28.3127 56.4197 28.3127 56.2304C28.3127 55.8518 28.3621 55.4814 28.4527 55.1193C28.609 54.4444 28.9218 53.8189 29.358 53.2839C29.7119 52.8477 30.1399 52.4773 30.642 52.1893L41.3086 56.9218C41.6214 56.7407 47.2016 59.7448 47.5308 59.7448C47.7778 59.7448 40.7243 55.4897 40.9547 55.5802C41.1358 55.6543 41.3004 55.7448 41.4568 55.8683L45.2592 58.0658L45.9341 58.4526L46.7736 58.9382Z" fill="#5C5C5C"/>
<path d="M45.6955 60.5349L44.7325 61.9588L43.5802 63.6543L42.7572 64.8642L28.3868 56.7572C28.3457 56.5926 28.3127 56.4197 28.3127 56.2304C28.3127 55.8518 28.3621 55.4815 28.4527 55.1193C28.609 54.4444 28.9218 53.8189 29.358 53.2839C29.7119 52.8477 30.1399 52.4773 30.642 52.1893L41.3086 56.9218C41.6214 56.7407 47.2016 59.7448 47.5308 59.7448C47.7778 59.7448 40.7243 55.4897 40.9547 55.5802C41.1358 55.6543 41.3004 55.7448 41.4568 55.8683L45.2592 58.0658L45.6955 60.5349Z" fill="#7E7E7E"/>
<path d="M46.181 59.8189L45.6954 60.5349L44.7325 61.9588L43.5802 63.6543L28.4526 55.1193C28.609 54.4444 28.9218 53.8189 29.358 53.2839C29.7119 52.8477 30.1399 52.4773 30.6419 52.1893L41.3086 56.9218C41.6214 56.7407 47.2016 59.7448 47.5308 59.7448C47.7777 59.7448 40.7242 55.4897 40.9547 55.5802C41.1358 55.6543 41.3004 55.7448 41.4567 55.8683L45.2592 58.0658L45.9341 58.4526L46.181 59.8189Z" fill="#B1B1B1"/>
<path d="M46.7737 58.9382L46.1728 59.8189L45.6872 60.535L44.7243 61.9588L29.358 53.2839C29.7119 52.8477 32.6008 51.1358 33.0947 50.8395L41.3086 56.9218C41.6214 56.7407 47.2017 59.7448 47.5309 59.7448C47.7778 59.7448 40.7243 55.4897 40.9547 55.5802C41.1358 55.6543 41.3004 55.7448 41.4568 55.8683L45.2593 58.0658L45.9342 58.4526L46.7737 58.9382Z" fill="#424242"/>
<path d="M41.4403 63.8107C41.4403 65.3168 43.0782 66.2633 44.3868 65.5061L45.6378 64.7819C47.0782 63.9506 47.9671 62.4115 47.9671 60.7407C47.9671 59.2345 46.3292 58.288 45.0206 59.0452L43.7695 59.7695C42.3292 60.6008 41.4403 62.1399 41.4403 63.8107Z" fill="#585858"/>
<path d="M47.6131 59.6213C47.3745 60.9629 46.5679 62.1481 45.358 62.8477L44.107 63.5719C43.1687 64.1152 42.0741 63.7777 41.5226 62.9958C41.4732 63.2674 41.4403 63.539 41.4403 63.8106C41.4403 65.3168 43.0782 66.2633 44.3868 65.5061L45.6378 64.7818C47.0782 63.9505 47.9671 62.4115 47.9671 60.7407C47.9753 60.3127 47.8354 59.9341 47.6131 59.6213Z" fill="#4F4F4F"/>
<path d="M56.7654 68.5514L44.5926 61.6214L55.8025 54.716L67.9835 61.646L56.7654 68.5514Z" fill="#9F5B0F"/>
<path d="M56.7654 74.5103L44.5926 67.5802V61.4403L56.7654 68.3703V74.5103Z" fill="#B37A00"/>
<path d="M56.7654 74.5103L44.5926 67.5802V66.1481L56.7654 73.0782V74.5103Z" fill="#2E2E2E"/>
<path d="M63.6379 49.358L57.9835 52.7243L53.6214 52.8724L66.0247 53.3416L63.6379 49.358Z" fill="#313131"/>
<path d="M8.26292 31.8107L8.93781 32.1975L0.756745 36.8971L0.0818481 36.5103L8.26292 31.8107Z" fill="#9EA2A7"/>
<path d="M0.757224 41.1934L0.0740967 40.823L0.0823271 36.5103L0.757224 36.8971V41.1934Z" fill="#161718"/>
<path d="M8.93827 32.1975V36.4691L0.757202 41.1934V36.8971L8.93827 32.1975Z" fill="#424D52"/>
<path d="M11.4403 54.2798L4.50208 42.6502L8.12347 40.5597L8.13171 40.5679C9.00413 40.0906 10.1975 40.1811 11.5227 40.9383C14.1893 42.4774 16.3457 46.1729 16.3457 49.2017C16.3457 50.6502 15.8436 51.679 15.0371 52.1975V52.2058L14.963 52.2469C14.9465 52.2552 14.9218 52.2716 14.9054 52.2798L11.4403 54.2798Z" fill="black"/>
<path d="M5.75305 43.3745L10.6666 40.535C10.9465 40.642 11.2263 40.7654 11.5144 40.9383C14.181 42.4774 16.3374 46.1728 16.3374 49.2016C16.3374 49.7613 16.2633 50.2551 16.1234 50.6831L12.3374 52.8642C11.9259 52.7407 11.4897 52.5679 11.0452 52.3045C10.5514 52.0164 10.074 51.6625 9.62136 51.2592L5.97527 45.1523C5.85182 44.5514 5.76951 43.9506 5.75305 43.3745Z" fill="#1F1F1F"/>
<path d="M3.18518 45.6626C3.18518 48.6914 5.34979 52.3868 8.00823 53.9259C10.6749 55.465 12.8313 54.2469 12.8313 51.2263C12.8313 48.1975 10.6667 44.5021 8.00823 42.963C5.34156 41.4239 3.18518 42.6337 3.18518 45.6626Z" fill="#2A2A2A"/>
<path d="M3.36627 45.7696C3.36627 48.6832 5.44035 52.2387 8.00825 53.712C10.5679 55.1852 12.6502 54.0247 12.6502 51.1111C12.6502 48.1976 10.5761 44.642 8.00825 43.1688C5.44858 41.6955 3.36627 42.8642 3.36627 45.7696Z" fill="#1D1D1D"/>
<path d="M4.40326 46.3704C4.40326 48.6337 6.01643 51.3909 8.0082 52.535C9.99997 53.679 11.6131 52.7737 11.6131 50.5185C11.6131 48.2551 9.99997 45.4979 8.0082 44.3539C6.01643 43.2017 4.40326 44.107 4.40326 46.3704Z" fill="#3B3B3B"/>
<path d="M4.65021 46.5103C4.65021 48.6173 6.15638 51.1935 8.00823 52.2634C9.86009 53.3334 11.3663 52.4856 11.3663 50.3786C11.3663 48.2716 9.86009 45.6955 8.00823 44.6256C6.15638 43.5638 4.65021 44.4033 4.65021 46.5103Z" fill="#727272"/>
<path d="M8.04939 44.6584C9.88478 45.7449 11.3663 48.2881 11.3663 50.3786C11.3663 50.6749 11.3333 50.9465 11.2757 51.1934L8.82306 52.6091C8.55968 52.535 8.28808 52.4198 8.00824 52.2552C6.18108 51.2017 4.70783 48.6996 4.65845 46.6173L8.04939 44.6584Z" fill="#A9A9A9"/>
<path d="M9.88478 46.3622C10.5432 47.2428 11.0288 48.2963 11.2428 49.3087L7.17696 51.6544C6.38684 50.9712 5.70371 50.033 5.25104 49.0371L9.88478 46.3622Z" fill="#E9EAE7"/>
<path d="M9.88478 46.3622C10.5432 47.2428 11.0288 48.2963 11.2428 49.3087L7.17696 51.6544C6.38684 50.9712 5.70371 50.033 5.25104 49.0371L9.88478 46.3622Z" fill="#E9EAE7"/>
<path d="M5.72839 46.4774C5.72839 48.1564 6.92181 50.1976 8.39506 51.0453C9.86831 51.893 11.0617 51.2264 11.0617 49.5474C11.0617 47.8683 9.86831 45.8272 8.39506 44.9795C6.92181 44.1317 5.72839 44.7984 5.72839 46.4774Z" fill="#737373"/>
<path d="M6.19751 46.5843C6.19751 48.0247 7.22632 49.7778 8.48558 50.502C9.74484 51.2263 10.7736 50.6584 10.7736 49.2181C10.7736 47.7778 9.74484 46.0247 8.48558 45.3004C7.21809 44.5761 6.19751 45.1522 6.19751 46.5843Z" fill="#949494"/>
<path d="M9.67899 46.3622C9.71191 46.3128 9.75306 46.2799 9.80244 46.2469C9.93413 46.4198 10.0658 46.6009 10.181 46.7902C10.074 46.8231 9.95059 46.8313 9.84359 46.7902C9.63783 46.7161 9.56376 46.5186 9.67899 46.3622Z" fill="#575757"/>
<path d="M6.22224 47.7202C6.06586 47.5226 6.09878 47.3416 6.29631 47.3333C6.48561 47.3169 6.76545 47.465 6.92182 47.6708C7.0782 47.8683 7.04528 48.0494 6.84775 48.0576C6.65845 48.0658 6.37861 47.9177 6.22224 47.7202Z" fill="#575757"/>
<path d="M10.2469 49.2675C10.1975 49.0288 10.3127 48.9382 10.5103 49.0617C10.7078 49.1852 10.9053 49.4815 10.9629 49.7284C11.0123 49.9671 10.8971 50.0576 10.6996 49.9341C10.4938 49.8107 10.2963 49.5144 10.2469 49.2675Z" fill="#575757"/>
<path d="M7.30041 45.0453C7.36625 44.8477 7.53086 44.8724 7.66255 45.0946C7.79423 45.3169 7.84362 45.6543 7.77777 45.8518C7.7037 46.0411 7.53909 46.0247 7.4074 45.7942C7.27572 45.572 7.22633 45.2346 7.30041 45.0453Z" fill="#575757"/>
<path d="M10.2716 47.6214C10.0905 47.4568 10.0823 47.2675 10.2551 47.1935C10.2963 47.177 10.3457 47.1688 10.4033 47.1688C10.5185 47.3745 10.6173 47.5885 10.6996 47.8107C10.5514 47.7943 10.3868 47.7284 10.2716 47.6214Z" fill="#575757"/>
<path d="M10.3704 50.5267C10.3374 50.7407 10.1811 50.7572 10.0247 50.5597C9.86831 50.3621 9.76955 50.0164 9.80247 49.8024C9.83539 49.5884 9.99177 49.572 10.1481 49.7695C10.3045 49.9671 10.4033 50.3045 10.3704 50.5267Z" fill="#575757"/>
<path d="M10.4115 48.502C10.2881 48.2798 10.3457 48.1234 10.5515 48.1564C10.6502 48.1728 10.7655 48.2304 10.8725 48.3127C10.9383 48.5267 10.9877 48.7407 11.0206 48.9547C11.0124 48.9547 11.0124 48.9547 11.0124 48.9547C10.8066 48.9218 10.535 48.7243 10.4115 48.502Z" fill="#575757"/>
<path d="M6.65841 48.9547C6.46911 48.823 6.42796 48.6337 6.57611 48.5185C6.72425 48.4033 6.99586 48.4197 7.19339 48.5432C7.38269 48.6749 7.42384 48.8642 7.27569 48.9794C7.12754 49.0864 6.85594 49.0782 6.65841 48.9547Z" fill="#575757"/>
<path d="M8.12347 50.3621C8.11524 50.1234 8.24693 49.8765 8.41977 49.8107C8.59261 49.7448 8.73253 49.8848 8.74076 50.1152C8.74899 50.3539 8.6173 50.6008 8.44446 50.6667C8.27985 50.7407 8.1317 50.6008 8.12347 50.3621Z" fill="#575757"/>
<path d="M9.51437 50.1399C9.60491 50.3786 9.58845 50.6996 9.48145 50.856C9.36623 51.0124 9.20985 50.9465 9.11931 50.6996C9.02878 50.4609 9.04524 50.1399 9.15224 49.9836C9.26746 49.8354 9.42384 49.9013 9.51437 50.1399Z" fill="#575757"/>
<path d="M7.22634 49.5885C7.30042 49.3992 7.52264 49.2675 7.7284 49.3004C7.92593 49.3333 8.0247 49.5144 7.95062 49.7119C7.87655 49.9012 7.65433 50.0329 7.4568 50C7.25104 49.9671 7.15227 49.7778 7.22634 49.5885Z" fill="#575757"/>
<path d="M6.92181 46.3704C6.74074 46.2058 6.57613 45.8848 6.55967 45.6544C6.54321 45.4157 6.68312 45.3581 6.86419 45.5227C7.04527 45.6873 7.20987 46.0083 7.22634 46.2387C7.2428 46.4774 7.10288 46.535 6.92181 46.3704Z" fill="#575757"/>
<path d="M9.5226 45.9095C9.44853 46.0329 9.3333 46.1317 9.20984 46.1482C9.02054 46.1728 8.89708 46.0082 8.92178 45.786C8.93824 45.6626 8.99585 45.5556 9.07815 45.4733C9.23453 45.6132 9.38268 45.7613 9.5226 45.9095Z" fill="#575757"/>
<path d="M6.38681 46.3622C6.59257 46.4362 6.83125 46.6832 6.93002 46.9218C7.02879 47.1605 6.93825 47.284 6.73249 47.2099C6.52673 47.1358 6.28804 46.8889 6.18928 46.6502C6.09874 46.4116 6.18105 46.2881 6.38681 46.3622Z" fill="#575757"/>
<path d="M8.60906 45.1111C8.6173 45.1276 8.62553 45.144 8.62553 45.1605C8.68314 45.4074 8.60906 45.6955 8.46915 45.8189C8.32923 45.9342 8.17285 45.8354 8.11524 45.5967C8.05763 45.3498 8.1317 45.0617 8.27162 44.9383C8.27985 44.9301 8.28808 44.9301 8.29631 44.9301C8.32923 44.9465 8.36215 44.963 8.39507 44.9794C8.46915 45.0206 8.53499 45.07 8.60906 45.1111Z" fill="#575757"/>
<path d="M7.25104 47.0947C7.25104 47.9836 7.88478 49.07 8.66667 49.5227C9.44857 49.9753 10.0823 49.6214 10.0823 48.7325C10.0823 47.8436 9.44857 46.7572 8.66667 46.3046C7.88478 45.8519 7.25104 46.2058 7.25104 47.0947Z" fill="#CDCDCD"/>
<path d="M8.27163 46.1481C8.39508 46.1811 8.52677 46.2222 8.66669 46.3045C9.44858 46.7572 10.0823 47.8436 10.0823 48.7325C10.0823 48.9712 10.0329 49.1687 9.95064 49.3251L8.65846 49.0535C8.1564 48.6173 8.09056 48.1234 7.80249 47.4815L8.27163 46.1481Z" fill="#A9A9A9"/>
<path d="M8.23867 48.5021C8.13991 48.3293 8.06583 48.14 7.99176 47.9342C8.53497 47.7284 9.03703 47.4321 9.48147 47.0618C9.72015 47.391 9.90122 47.7778 9.99999 48.1564C9.38271 48.1646 8.79011 48.2881 8.23867 48.5021Z" fill="#DCDED9"/>
<path d="M7.25104 47.7448C7.25104 48.3786 7.70371 49.1522 8.25515 49.465C8.81482 49.786 9.25927 49.5308 9.25927 48.8971C9.25927 48.2634 8.80659 47.4897 8.25515 47.1769C7.70371 46.856 7.25104 47.1111 7.25104 47.7448Z" fill="#A9A9A9"/>
<path d="M7.55554 48.1317C7.55554 48.4774 7.80246 48.8889 8.09875 49.0617C8.40328 49.2346 8.64196 49.0946 8.64196 48.7572C8.64196 48.4115 8.39505 48 8.09875 47.8272C7.80246 47.6461 7.55554 47.786 7.55554 48.1317Z" fill="#E0E0E0"/>
<path d="M11.4321 54.2716L13.5556 53.0453C13.572 53.037 13.5967 53.0206 13.6132 53.0123L13.6873 52.9712V52.9629C14.5021 52.4527 14.9959 51.4239 14.9959 49.9671C14.9959 46.9383 12.8313 43.2428 10.1729 41.7037C8.85599 40.9465 7.65434 40.856 6.78191 41.3333L6.77368 41.3251L7.01237 41.1852L7.0206 41.1934C7.89302 40.716 9.08644 40.8066 10.4115 41.5638C13.0782 43.1029 15.2346 46.7983 15.2346 49.8271C15.2346 51.2757 14.7325 52.3045 13.9259 52.823V52.8313L13.8519 52.8724C13.8354 52.8806 13.8107 52.8971 13.7943 52.9053L11.4321 54.2716Z" fill="black"/>
<path d="M11.4321 54.2716L12.4774 53.6708C12.4939 53.6626 12.5185 53.6461 12.535 53.6379L12.6091 53.5967V53.5885C13.4239 53.0782 13.9177 52.0494 13.9177 50.5926C13.9177 47.5638 11.7531 43.8683 9.09467 42.3292C7.7778 41.572 6.57615 41.4815 5.70373 41.9589L5.6955 41.9506L5.93418 41.8107L5.94241 41.819C6.81484 41.3416 8.00825 41.4321 9.33336 42.1893C12 43.7284 14.1564 47.4239 14.1564 50.4527C14.1564 51.9013 13.6543 52.9301 12.8478 53.4486V53.4568L12.7737 53.498C12.7572 53.5062 12.7325 53.5227 12.7161 53.5309L11.4321 54.2716Z" fill="black"/>
<path d="M20.9547 59.8765L14.0247 48.2469L17.6461 46.1564L17.6543 46.1646C18.5267 45.6872 19.7201 45.7778 21.0452 46.535C23.7119 48.0741 25.8683 51.7695 25.8683 54.7983C25.8683 56.2469 25.3662 57.2757 24.5596 57.7942V57.8025L24.4856 57.8436C24.4691 57.8518 24.4444 57.8683 24.4279 57.8765L20.9547 59.8765Z" fill="black"/>
<path d="M15.2675 48.9712L20.181 46.1317C20.4609 46.2386 20.7407 46.3621 21.0288 46.5349C23.6954 48.074 25.8518 51.7695 25.8518 54.7983C25.8518 55.358 25.7777 55.8518 25.6378 56.2798L21.8518 58.4609C21.4403 58.3374 21.0041 58.1646 20.5596 57.9012C20.0658 57.6131 19.5884 57.2592 19.1358 56.8559L15.4897 50.7489C15.3662 50.1481 15.2839 49.5473 15.2675 48.9712Z" fill="#1F1F1F"/>
<path d="M12.6996 51.2593C12.6996 54.2881 14.8642 57.9835 17.5226 59.5226C20.1893 61.0617 22.3457 59.8436 22.3457 56.823C22.3457 53.7942 20.1811 50.0988 17.5226 48.5597C14.856 47.0206 12.6996 48.2387 12.6996 51.2593Z" fill="#2A2A2A"/>
<path d="M12.8889 51.3663C12.8889 54.2798 14.9629 57.8354 17.5308 59.3086C20.0987 60.7819 22.1728 59.6214 22.1728 56.7078C22.1728 53.7942 20.0987 50.2387 17.5308 48.7654C14.9629 47.2922 12.8889 48.4609 12.8889 51.3663Z" fill="#1D1D1D"/>
<path d="M13.9259 51.967C13.9259 54.2304 15.5391 56.9876 17.5308 58.1316C19.5226 59.2756 21.1358 58.3703 21.1358 56.1152C21.1358 53.86 19.5226 51.0946 17.5308 49.9506C15.5391 48.8065 13.9259 49.7037 13.9259 51.967Z" fill="#3B3B3B"/>
<path d="M14.1646 52.107C14.1646 54.2139 15.6708 56.7901 17.5226 57.86C19.3745 58.93 20.8807 58.0823 20.8807 55.9753C20.8807 53.8683 19.3745 51.2921 17.5226 50.2222C15.6708 49.1605 14.1646 50 14.1646 52.107Z" fill="#727272"/>
<path d="M17.572 50.2551C19.4074 51.3415 20.8889 53.8848 20.8889 55.9753C20.8889 56.2716 20.856 56.5432 20.7984 56.7901L18.3457 58.2057C18.0823 58.1317 17.8107 58.0164 17.5309 57.8518C15.7037 56.7983 14.2305 54.2963 14.1811 52.214L17.572 50.2551Z" fill="#A9A9A9"/>
<path d="M19.4074 51.967C20.0659 52.8477 20.5515 53.9012 20.7655 54.9136L16.6996 57.2592C15.9095 56.5761 15.2264 55.6378 14.7737 54.6419L19.4074 51.967Z" fill="#E9EAE7"/>
<path d="M19.4074 51.967C20.0659 52.8477 20.5515 53.9012 20.7655 54.9136L16.6996 57.2592C15.9095 56.5761 15.2264 55.6378 14.7737 54.6419L19.4074 51.967Z" fill="#E9EAE7"/>
<path d="M15.2428 52.0741C15.2428 53.7531 16.4362 55.7943 17.9095 56.642C19.3827 57.4897 20.5761 56.8231 20.5761 55.144C20.5761 53.465 19.3827 51.4239 17.9095 50.5761C16.4362 49.7284 15.2428 50.3951 15.2428 52.0741Z" fill="#737373"/>
<path d="M15.7119 52.1811C15.7119 53.6214 16.7407 55.3745 18 56.0988C19.2675 56.8313 20.288 56.2552 20.288 54.8148C20.288 53.3745 19.2592 51.6214 18 50.8971C16.7407 50.1729 15.7119 50.749 15.7119 52.1811Z" fill="#949494"/>
<path d="M19.1934 51.9589C19.2264 51.9095 19.2675 51.8765 19.3169 51.8436C19.4486 52.0165 19.5803 52.1975 19.6955 52.3868C19.5885 52.4198 19.465 52.428 19.358 52.3868C19.1605 52.3128 19.0864 52.1235 19.1934 51.9589Z" fill="#575757"/>
<path d="M15.7449 53.3168C15.5885 53.1193 15.6214 52.9383 15.819 52.93C16.0083 52.9136 16.2881 53.0617 16.4445 53.2675C16.6009 53.465 16.5679 53.6461 16.3704 53.6543C16.1729 53.6625 15.893 53.5144 15.7449 53.3168Z" fill="#575757"/>
<path d="M19.7613 54.8724C19.7119 54.6337 19.8271 54.5432 20.0247 54.6666C20.2222 54.7901 20.4197 55.0864 20.4773 55.3333C20.5267 55.572 20.4115 55.6625 20.214 55.5391C20.0164 55.4074 19.8107 55.1111 19.7613 54.8724Z" fill="#575757"/>
<path d="M16.8148 50.6419C16.8806 50.4444 17.0453 50.4691 17.1769 50.6913C17.3086 50.9135 17.358 51.251 17.2922 51.4485C17.2263 51.6461 17.0617 51.6214 16.93 51.3991C16.7983 51.1769 16.749 50.8395 16.8148 50.6419Z" fill="#575757"/>
<path d="M19.786 53.2181C19.6049 53.0535 19.5967 52.8642 19.7695 52.7901C19.8107 52.7737 19.8601 52.7654 19.9177 52.7654C20.0329 52.9712 20.1317 53.1852 20.214 53.4074C20.0658 53.391 19.9012 53.3251 19.786 53.2181Z" fill="#575757"/>
<path d="M19.8848 56.1234C19.8519 56.3374 19.6955 56.3539 19.5391 56.1563C19.3827 55.9588 19.284 55.6213 19.3169 55.3991C19.3498 55.1851 19.5062 55.1687 19.6626 55.3662C19.8189 55.572 19.9177 55.9094 19.8848 56.1234Z" fill="#575757"/>
<path d="M19.9259 54.0988C19.8024 53.8766 19.86 53.7202 20.0658 53.7531C20.1646 53.7696 20.2798 53.8272 20.3868 53.9095C20.4526 54.1235 20.502 54.3375 20.535 54.5515C20.5267 54.5515 20.5267 54.5515 20.5267 54.5515C20.321 54.5268 20.0576 54.321 19.9259 54.0988Z" fill="#575757"/>
<path d="M16.1811 54.5514C15.9918 54.4198 15.9506 54.2305 16.0987 54.1152C16.2469 54 16.5185 54.0165 16.716 54.1399C16.9053 54.2716 16.9465 54.4609 16.7983 54.5761C16.6502 54.6914 16.3704 54.6749 16.1811 54.5514Z" fill="#575757"/>
<path d="M17.6379 55.9671C17.6296 55.7284 17.7613 55.4815 17.9342 55.4157C18.107 55.3498 18.2469 55.4897 18.2552 55.7202C18.2634 55.9589 18.1317 56.2058 17.9589 56.2716C17.7943 56.3375 17.6461 56.1976 17.6379 55.9671Z" fill="#575757"/>
<path d="M19.037 55.7448C19.1276 55.9835 19.1111 56.3045 19.0041 56.4609C18.8889 56.6173 18.7325 56.5514 18.642 56.3045C18.5514 56.0658 18.5679 55.7448 18.6749 55.5885C18.7819 55.4321 18.9465 55.5062 19.037 55.7448Z" fill="#575757"/>
<path d="M16.7407 55.1852C16.8148 54.9959 17.037 54.8642 17.2428 54.8971C17.4403 54.9301 17.5391 55.1111 17.465 55.3087C17.3909 55.498 17.1687 55.6297 16.9629 55.5967C16.7654 55.5638 16.6666 55.3827 16.7407 55.1852Z" fill="#575757"/>
<path d="M16.4362 51.967C16.2551 51.8024 16.0905 51.4814 16.0741 51.251C16.0576 51.0123 16.1975 50.9547 16.3786 51.1193C16.5597 51.2839 16.7243 51.6049 16.7407 51.8353C16.7572 52.074 16.6173 52.1316 16.4362 51.967Z" fill="#575757"/>
<path d="M19.037 51.5144C18.9629 51.6379 18.8477 51.7366 18.7242 51.7531C18.5349 51.7778 18.4115 51.6132 18.4362 51.3909C18.4526 51.2675 18.5103 51.1605 18.5926 51.0782C18.7489 51.2099 18.8971 51.358 19.037 51.5144Z" fill="#575757"/>
<path d="M15.9095 51.9588C16.1152 52.0329 16.3539 52.2798 16.4527 52.5185C16.5515 52.749 16.4609 52.8807 16.2552 52.8066C16.0494 52.7325 15.8107 52.4856 15.7119 52.2469C15.6132 52.0165 15.7037 51.8848 15.9095 51.9588Z" fill="#575757"/>
<path d="M18.1235 50.716C18.1317 50.7325 18.1399 50.749 18.1399 50.7654C18.1975 51.0123 18.1235 51.3004 17.9836 51.4239C17.8436 51.5391 17.6873 51.4403 17.6296 51.2016C17.572 50.9547 17.6461 50.6667 17.786 50.5432C17.7943 50.535 17.8025 50.535 17.8107 50.535C17.8436 50.5514 17.8766 50.5679 17.9095 50.5844C17.9836 50.6173 18.0576 50.6667 18.1235 50.716Z" fill="#575757"/>
<path d="M16.7654 52.6996C16.7654 53.5885 17.3992 54.6749 18.1811 55.1276C18.963 55.5803 19.5967 55.2264 19.5967 54.3375C19.5967 53.4486 18.963 52.3622 18.1811 51.9095C17.3992 51.4568 16.7654 51.8107 16.7654 52.6996Z" fill="#CDCDCD"/>
<path d="M17.786 51.7448C17.9095 51.7777 18.0412 51.8189 18.1811 51.9012C18.963 52.3539 19.5967 53.4403 19.5967 54.3292C19.5967 54.5679 19.5473 54.7654 19.465 54.9218L18.1729 54.6502C17.6708 54.214 17.605 53.7201 17.3169 53.0781L17.786 51.7448Z" fill="#A9A9A9"/>
<path d="M17.7531 54.1069C17.6543 53.9341 17.5802 53.7448 17.5062 53.5391C18.0494 53.3333 18.5514 53.037 18.9959 52.6666C19.2346 52.9958 19.4156 53.3827 19.5144 53.7613C18.8971 53.7695 18.3045 53.893 17.7531 54.1069Z" fill="#DCDED9"/>
<path d="M16.7654 53.3415C16.7654 53.9753 17.2181 54.749 17.7696 55.0699C18.3292 55.3909 18.7737 55.1358 18.7737 54.502C18.7737 53.8683 18.321 53.0946 17.7696 52.7819C17.2181 52.4609 16.7654 52.7078 16.7654 53.3415Z" fill="#A9A9A9"/>
<path d="M17.0699 53.7284C17.0699 54.0741 17.3169 54.4856 17.6132 54.6584C17.9177 54.8313 18.1564 54.6914 18.1564 54.3539C18.1564 54.0082 17.9095 53.5967 17.6132 53.4239C17.3169 53.251 17.0699 53.3827 17.0699 53.7284Z" fill="#E0E0E0"/>
<path d="M20.9547 59.8683L23.0782 58.6419C23.0946 58.6337 23.1193 58.6172 23.1358 58.609L23.2098 58.5679V58.5596C24.0247 58.0493 24.5185 57.0205 24.5185 55.5637C24.5185 52.5349 22.3539 48.8395 19.6954 47.3004C18.3786 46.5432 17.1769 46.4526 16.3045 46.93L16.2963 46.9218L16.5349 46.7819L16.5432 46.7901C17.4156 46.3127 18.609 46.4033 19.9341 47.1605C22.6008 48.6995 24.7572 52.395 24.7572 55.4238C24.7572 56.8724 24.2551 57.9012 23.4485 58.4197V58.4279L23.3745 58.4691C23.358 58.4773 23.3333 58.4938 23.3168 58.502L20.9547 59.8683Z" fill="black"/>
<path d="M20.9547 59.8766L22 59.2757C22.0164 59.2675 22.0411 59.251 22.0576 59.2428L22.1317 59.2017V59.1934C22.9465 58.6831 23.4403 57.6543 23.4403 56.1975C23.4403 53.1687 21.2757 49.4733 18.6173 47.9342C17.3004 47.177 16.0987 47.0864 15.2263 47.5638L15.2181 47.5556L15.4568 47.4156L15.465 47.4239C16.3374 46.9465 17.5308 47.037 18.8559 47.7942C21.5226 49.3333 23.679 53.0288 23.679 56.0576C23.679 57.5062 23.1769 58.535 22.3703 59.0535V59.0617L22.2963 59.1029C22.2798 59.1111 22.2551 59.1276 22.2387 59.1358L20.9547 59.8766Z" fill="black"/>
<path d="M6.36215 40.3457L2.17285 42.3045V42.8231L4.55145 42.0412L8.74075 39.572L6.36215 40.3457Z" fill="#181818"/>
<path d="M6.36215 39.8354L2.17285 42.3045L4.55145 41.5308L8.74075 39.0617L6.36215 39.8354Z" fill="#313131"/>
<path d="M8.74075 39.572L4.55145 42.0412L22.6831 52.4033L26.8724 49.9259L8.74075 39.572Z" fill="#181818"/>
<path d="M26.2058 49.3909L22.0165 51.8601L24.2552 55.8189L24.9218 55.8436L26.2058 49.3909Z" fill="#181818"/>
<path d="M8.74075 39.0617L4.55145 41.5308L22.6831 51.8848L26.8724 49.4156L8.74075 39.0617Z" fill="#252525"/>
<path d="M26.8724 49.4156L22.6831 51.8847L24.9218 55.8436L31.1276 52.4032L26.8724 49.4156Z" fill="#313131"/>
<path d="M71.7119 29.9918L19.7942 0L0.954712 10.8066L52.9218 40.8477L71.7119 29.9918Z" fill="#E66344"/>
<path d="M71.7119 29.9918V55.3333L53.3333 65.1193L52.9218 65.3333V40.8395L71.7119 29.9918Z" fill="#D83D17"/>
<path d="M71.7119 34.7654V55.3333L53.3333 65.1194V45.391L71.7119 34.7654Z" fill="#BD2B2B"/>
<path d="M52.9218 40.8477L0.954712 10.8066V35.3827L52.9218 65.3251V40.8477Z" fill="#A2190F"/>
<path d="M54.1646 61.9012L0.954732 31.1522L0 31.6378L54.1646 65.4567V61.9012Z" fill="#CAD8E6"/>
<path d="M53.2017 62.395L54.1646 61.7448V65.1028L53.2017 65.9423V62.395Z" fill="#2A6198"/>
<path d="M53.2016 62.395L0 31.6378V35.2921L53.2016 65.9423V62.395Z" fill="#8BA9C7"/>
<path d="M85.3004 56.8395L87.572 55.5309V49.4733L85.3004 50.7819V56.8395Z" fill="#0D0D0D"/>
<path d="M87.4485 55.3498V50.1729L85.9341 51.0453V56.2222L87.4485 55.3498Z" fill="#1A1A1A"/>
<path d="M87.572 49.4733L87.4486 50.1729L85.9342 51.0453L85.3004 50.7819L87.572 49.4733Z" fill="#6C6C6C"/>
<path d="M85.9342 56.2222L85.3004 56.8395L87.572 55.5309L87.4486 55.3498L85.9342 56.2222Z" fill="#404040"/>
<path d="M87.6872 56.9876C87.6872 57.7201 87.1276 58.6502 86.4362 59.0782C85.7448 59.4979 85.1852 59.251 85.1852 58.5185C85.1852 57.786 85.7448 56.8559 86.4362 56.428C87.1276 56 87.6872 56.2551 87.6872 56.9876Z" fill="#676767"/>
<path d="M87.1029 58.4609C86.9136 58.7078 86.6831 58.9218 86.4444 59.0699C86.3292 59.144 86.214 59.1851 86.107 59.2181C86.2551 58.9629 86.4691 58.7325 86.6996 58.5926C86.8477 58.502 86.9794 58.4609 87.1029 58.4609Z" fill="#404040"/>
<path d="M85.8601 56.93C86.0329 56.7243 86.2305 56.5514 86.4362 56.4197C86.8478 56.1646 87.2099 56.1564 87.4403 56.3457C87.4403 56.3786 87.4486 56.4033 87.4486 56.4362C87.4486 57.0041 87.07 57.4568 86.6008 57.4568C86.2799 57.465 86.0083 57.251 85.8601 56.93Z" fill="#E9EAE7"/>
<path d="M87.5309 57.3087C87.5309 57.7943 87.1605 58.428 86.6914 58.7078C86.2305 58.9877 85.8519 58.8231 85.8519 58.3292C85.8519 57.8436 86.2222 57.2099 86.6914 56.93C87.1605 56.6502 87.5309 56.8148 87.5309 57.3087Z" fill="#92978D"/>
<path d="M86.5515 54.0082L87.0535 53.7202V54.6337L86.5515 54.9218L86.4362 54.856V53.9424L86.5515 54.0082Z" fill="#73796C"/>
<path d="M87.0535 54.3868V53.4732L86.5515 53.7613V54.6748L87.0535 54.3868Z" fill="#676767"/>
<path d="M87.0535 53.4733L86.9383 53.4074L86.4362 53.6955L86.5515 53.7613L87.0535 53.4733Z" fill="#E9EAE7"/>
<path d="M86.4362 54.609V53.6954L86.5515 53.7613V54.6748L86.4362 54.609Z" fill="#404040"/>
<path d="M86.5515 57.8107L87.0535 57.5226V58.1399L86.5515 58.4279L86.4362 58.3621V57.7448L86.5515 57.8107Z" fill="#73796C"/>
<path d="M87.0535 57.893V57.2675L86.5515 57.5555V58.181L87.0535 57.893Z" fill="#676767"/>
<path d="M87.0535 57.2675L86.9383 57.2098L86.4362 57.4979L86.5515 57.5555L87.0535 57.2675Z" fill="#E9EAE7"/>
<path d="M86.4362 58.1152V57.4979L86.5515 57.5555V58.1811L86.4362 58.1152Z" fill="#404040"/>
<path d="M84.7161 61.3992V61.0123L86.7243 59.1111V48.4691L86.1235 48.0247L86.214 47.7366L87.0041 48.321V59.2346L84.7161 61.3992Z" fill="black"/>
<path d="M53.4321 53.9424L68.2963 62.5185V81.1276L53.4321 72.5514V53.9424Z" fill="#B37A00"/>
<path d="M68.2963 72.9547L67.3909 70.1646L66.7983 71.3498V80.2634L68.2963 80.9712H68.7901L69.037 80.9959L69.144 76.4198L68.2963 72.9547Z" fill="#C7A22A"/>
<path d="M58.2716 57.7613C58.2716 57.6872 58.2798 57.6049 58.3539 57.5226C58.3045 57.5884 58.2798 57.6707 58.2716 57.7613Z" fill="#2E2E2E"/>
<path d="M58.5515 57.358C58.6585 57.3004 58.7572 57.3169 58.8395 57.3415C58.7408 57.3086 58.642 57.3251 58.5515 57.358Z" fill="#2E2E2E"/>
<path d="M58.9548 57.3909C58.9136 57.3662 58.8807 57.3498 58.8395 57.3416C58.9136 57.358 58.9548 57.3909 58.9548 57.3909Z" fill="#2E2E2E"/>
<path d="M66.4774 68.963V68.9465L63.786 60.214L64.4938 60.3292L67.8272 71.3827L66.4444 71.0782L66.4774 68.963Z" fill="#C7A22A"/>
<path d="M58.749 68.6749L60.3539 69.6131V69.037C60.3539 68.6584 60.1481 68.3045 59.8189 68.107L58.749 67.4814V68.6749Z" fill="#9F5B0F"/>
<path d="M66.3292 70.9712L66.2963 70.9547L66.214 76.4198L61.3498 73.8519L58.4198 72.0247V66.0329L58.2716 65.9424V72.107L61.2757 73.9753L66.3539 76.6585L66.4362 71.0782L66.3292 70.9712Z" fill="#9F5B0F"/>
<path d="M66.4774 68.9465V68.9547L66.4445 71.07L66.3375 70.963L66.3045 70.9465L66.3375 68.9794L63.6708 60.3128L58.8807 57.5062C58.6749 57.391 58.428 57.5309 58.428 57.7696V66.0329L58.2798 65.9424V57.7613C58.2881 57.6708 58.3128 57.5885 58.3622 57.5226C58.3704 57.5144 58.3704 57.5062 58.3786 57.4979C58.4033 57.4568 58.4527 57.4239 58.5021 57.391C58.5185 57.3745 58.5432 57.3663 58.5597 57.358C58.6502 57.3251 58.749 57.3169 58.8478 57.3416C58.8889 57.3498 58.9218 57.3663 58.963 57.391L63.7696 60.1975L63.7943 60.214L66.4774 68.9465Z" fill="#9F5B0F"/>
<path d="M53.0453 72.321V67.7119C53.8848 67.5473 54.8889 67.7531 55.9753 68.3786C58.7737 69.9918 61.0535 73.8025 61.1934 77.0206L53.0453 72.321Z" fill="#131313"/>
<path d="M82.8971 66.1399L83.037 66.0905L80.6255 58.6996L80.4856 58.7407L82.8971 66.1399Z" fill="black"/>
<path d="M76.1975 70.4526L76.3374 70.4115L73.9259 63.0123L73.786 63.0617L76.1975 70.4526Z" fill="black"/>
<path d="M64.4938 60.3292L85.9259 47.9506L88.8231 57.7942L67.391 70.1646L64.4938 60.3292Z" fill="#F3D052"/>
<path d="M87.0782 56.2222L87.0123 55.9753V56.2222C87.0288 56.2222 87.0535 56.2222 87.0782 56.2222Z" fill="#C0FFFF"/>
<path d="M79.8436 53.2675C80.0659 53.6708 80.3951 54.0165 80.8066 54.2551L85.7284 57.0947C85.8436 56.9383 85.9753 56.7984 86.1152 56.6667C86.1235 56.6584 86.1317 56.6502 86.1399 56.642C86.2387 56.5597 86.3375 56.4856 86.4362 56.4198C86.5185 56.3704 86.5844 56.3374 86.6585 56.3045C86.6749 56.3045 86.6914 56.2963 86.7078 56.2881H86.7161V56.0165L85.2922 56.8395V52.4609L83.5144 51.1358L79.8436 53.2675Z" fill="url(#paint0_linear_246_12941)"/>
<path d="M85.3004 50.7819V56.8313L86.7243 56.0082V56.2798H86.7161C86.6996 56.2881 86.6831 56.2963 86.6667 56.2963C86.5926 56.3292 86.5185 56.3621 86.4444 56.4115C86.3457 56.4774 86.2469 56.5514 86.1482 56.6337C86.1399 56.642 86.1317 56.6502 86.1235 56.6584C85.9835 56.7819 85.8519 56.93 85.7366 57.0864L86.5844 57.5802C86.963 57.8025 87.4239 57.4486 87.3004 57.0206L87.0782 56.2222C87.0535 56.2222 87.0288 56.2222 87.0124 56.2222V55.9753L86.2222 53.144L85.5309 50.6584L85.3004 50.7819Z" fill="#65818A"/>
<path d="M85.3004 52.4609V50.7819L85.5309 50.6584L85.3663 50.074L83.5226 51.1358L85.3004 52.4609Z" fill="#A6DDFF"/>
<path d="M87.9259 56.1317L87.2675 53.9177L86.214 53.1358L87.2922 57.0206C87.4074 57.4486 86.9547 57.8025 86.5761 57.5802L80.8066 54.2469C80.3951 54.0082 80.0658 53.6626 79.8436 53.2593L83.5226 51.1358L87.2675 53.9259L85.8601 49.2181C85.7531 48.8724 85.358 48.7161 85.0453 48.8971L82.4856 50.3704L83.0288 50.7737L82.4856 50.3704L76.9053 53.5885L71.6049 56.6584L66.0247 59.8765L66 59.8848C65.358 60.2551 65.0617 61.0123 65.2675 61.7284L66.9053 67.2099C66.9383 67.3086 66.9712 67.4074 67.0123 67.4979C67.4897 68.5103 68.7572 68.93 69.7613 68.3539L74.0741 65.8683L77.8107 61.2757L79.6543 62.6502L84.963 59.5802L83.1193 58.2058L83.3827 58.0576C84.1646 57.6049 85.1111 57.5556 85.9424 57.9095L87.0288 58.3868C87.8189 57.9342 88.1893 57.0041 87.9259 56.1317Z" fill="url(#paint1_linear_246_12941)"/>
<path d="M58.7901 81.5555L51.8519 69.9259L55.4733 67.8354L55.4815 67.8436C56.3539 67.3662 57.5473 67.4568 58.8724 68.214C61.5391 69.7531 63.6955 73.4485 63.6955 76.4773C63.6955 77.9259 63.1934 78.9547 62.3868 79.4732V79.4815L62.3128 79.5226C62.2963 79.5308 62.2716 79.5473 62.2551 79.5555L58.7901 81.5555Z" fill="black"/>
<path d="M53.1028 70.6584L58.0164 67.8189C58.2963 67.9259 58.5761 68.0494 58.8642 68.2222C61.5308 69.7613 63.6872 73.4568 63.6872 76.4856C63.6872 77.0452 63.6131 77.5391 63.4732 77.9588L59.6872 80.1399C59.2757 80.0164 58.8395 79.8436 58.395 79.5802C57.9012 79.2922 57.4238 78.9382 56.9712 78.535L53.3251 72.428C53.2016 71.8354 53.1193 71.2345 53.1028 70.6584Z" fill="#1F1F1F"/>
<path d="M50.535 72.9465C50.535 75.9753 52.6996 79.6708 55.358 81.2099C58.0247 82.749 60.1811 81.5308 60.1811 78.5103C60.1811 75.4815 58.0164 71.786 55.358 70.2469C52.6913 68.7078 50.535 69.9177 50.535 72.9465Z" fill="#2A2A2A"/>
<path d="M50.716 73.0535C50.716 75.9671 52.7901 79.5226 55.358 80.9959C57.9177 82.4691 60 81.3086 60 78.3951C60 75.4815 57.9259 71.9259 55.358 70.4527C52.7983 68.9794 50.716 70.1399 50.716 73.0535Z" fill="#1D1D1D"/>
<path d="M51.7531 73.6543C51.7531 75.9177 53.3662 78.6749 55.358 79.8189C57.3498 80.9629 58.9629 80.0576 58.9629 77.8024C58.9629 75.5391 57.3498 72.7819 55.358 71.6379C53.3662 70.4856 51.7531 71.3909 51.7531 73.6543Z" fill="#3B3B3B"/>
<path d="M52 73.7942C52 75.9012 53.5062 78.4774 55.358 79.5473C57.2099 80.6173 58.716 79.7695 58.716 77.6625C58.716 75.5555 57.2099 72.9794 55.358 71.9095C53.5062 70.8395 52 71.6872 52 73.7942Z" fill="#727272"/>
<path d="M55.3992 71.9341C57.2346 73.0206 58.716 75.5638 58.716 77.6543C58.716 77.9506 58.6831 78.2222 58.6255 78.4691L56.1728 79.8848C55.9095 79.8107 55.6379 79.6955 55.358 79.5308C53.5309 78.4774 52.0576 75.9753 52.0082 73.893L55.3992 71.9341Z" fill="#A9A9A9"/>
<path d="M57.2346 73.6461C57.893 74.5267 58.3786 75.5802 58.5926 76.5926L54.5268 78.9382C53.7366 78.2551 53.0535 77.3168 52.6008 76.321L57.2346 73.6461Z" fill="#E9EAE7"/>
<path d="M57.2346 73.6461C57.893 74.5267 58.3786 75.5802 58.5926 76.5926L54.5268 78.9382C53.7366 78.2551 53.0535 77.3168 52.6008 76.321L57.2346 73.6461Z" fill="#E9EAE7"/>
<path d="M53.0782 73.7531C53.0782 75.4321 54.2716 77.4733 55.7449 78.321C57.2181 79.1687 58.4115 78.5021 58.4115 76.8231C58.4115 75.144 57.2181 73.1029 55.7449 72.2552C54.2716 71.4157 53.0782 72.0823 53.0782 73.7531Z" fill="#737373"/>
<path d="M53.5473 73.8683C53.5473 75.3086 54.5761 77.0617 55.8354 77.786C57.1029 78.5185 58.1234 77.9424 58.1234 76.5021C58.1234 75.0617 57.0946 73.3086 55.8354 72.5844C54.5679 71.8601 53.5473 72.428 53.5473 73.8683Z" fill="#949494"/>
<path d="M57.0288 73.6378C57.0618 73.5884 57.1029 73.5555 57.1523 73.5226C57.284 73.6954 57.4157 73.8765 57.5309 74.0658C57.4239 74.0987 57.3004 74.1069 57.1934 74.0658C56.9877 73.9999 56.9136 73.8024 57.0288 73.6378Z" fill="#575757"/>
<path d="M53.572 75.0041C53.4156 74.8066 53.4486 74.6255 53.6461 74.6173C53.8354 74.6008 54.1152 74.749 54.2716 74.9547C54.428 75.1523 54.3951 75.3333 54.1975 75.3416C54.0082 75.3498 53.7284 75.2016 53.572 75.0041Z" fill="#575757"/>
<path d="M57.5967 76.5514C57.5474 76.3127 57.6626 76.2222 57.8601 76.3456C58.0576 76.4691 58.2552 76.7654 58.3128 77.0123C58.3622 77.251 58.2469 77.3415 58.0494 77.2181C57.8436 77.0864 57.6461 76.7901 57.5967 76.5514Z" fill="#575757"/>
<path d="M54.6502 72.3292C54.716 72.1317 54.8806 72.1564 55.0123 72.3786C55.144 72.6008 55.1934 72.9382 55.1276 73.1358C55.0617 73.3333 54.8971 73.3086 54.7654 73.0864C54.6255 72.8559 54.5761 72.5185 54.6502 72.3292Z" fill="#575757"/>
<path d="M57.6214 74.9053C57.4403 74.7407 57.4321 74.5514 57.6049 74.4773C57.6461 74.4609 57.6955 74.4526 57.7531 74.4526C57.8683 74.6584 57.9671 74.8724 58.0494 75.0946C57.9012 75.0782 57.7366 75.0123 57.6214 74.9053Z" fill="#575757"/>
<path d="M57.7202 77.8106C57.6872 78.0246 57.5309 78.0411 57.3745 77.8436C57.2181 77.646 57.1193 77.3086 57.1523 77.0864C57.1852 76.8724 57.3416 76.8559 57.4979 77.0535C57.6543 77.251 57.7531 77.5884 57.7202 77.8106Z" fill="#575757"/>
<path d="M57.7613 75.7777C57.6379 75.5555 57.6955 75.3991 57.9013 75.4321C58 75.4485 58.1152 75.5061 58.2222 75.5884C58.2881 75.8024 58.3375 76.0164 58.3704 76.2304C58.3622 76.2304 58.3622 76.2304 58.3622 76.2304C58.1564 76.2057 57.8848 76 57.7613 75.7777Z" fill="#575757"/>
<path d="M54.0082 76.2305C53.8189 76.0988 53.7777 75.9095 53.9259 75.7942C54.074 75.679 54.3457 75.6872 54.5432 75.8189C54.7325 75.9506 54.7736 76.1399 54.6255 76.2551C54.4773 76.3704 54.2057 76.3621 54.0082 76.2305Z" fill="#575757"/>
<path d="M55.4733 77.6461C55.465 77.4074 55.5967 77.1605 55.7696 77.0946C55.9424 77.0288 56.0823 77.1687 56.0905 77.3991C56.0988 77.6378 55.9671 77.8847 55.7942 77.9506C55.6296 78.0247 55.4815 77.8847 55.4733 77.6461Z" fill="#575757"/>
<path d="M56.8724 77.4239C56.9629 77.6626 56.9465 77.9835 56.8395 78.1399C56.7243 78.2963 56.5679 78.2305 56.4773 77.9835C56.3868 77.7449 56.4033 77.4239 56.5103 77.2675C56.6173 77.1194 56.7736 77.1852 56.8724 77.4239Z" fill="#575757"/>
<path d="M54.5761 76.8724C54.6502 76.6831 54.8724 76.5514 55.0782 76.5843C55.2757 76.6173 55.3745 76.7983 55.3004 76.9959C55.2263 77.1852 55.0041 77.3168 54.7983 77.2839C54.6008 77.2428 54.502 77.0617 54.5761 76.8724Z" fill="#575757"/>
<path d="M54.2716 73.6543C54.0905 73.4897 53.9259 73.1687 53.9095 72.9382C53.893 72.6996 54.0329 72.6419 54.214 72.8065C54.3951 72.9712 54.5597 73.2921 54.5761 73.5226C54.5926 73.753 54.4527 73.8107 54.2716 73.6543Z" fill="#575757"/>
<path d="M56.8725 73.1934C56.7984 73.3169 56.6832 73.4156 56.5597 73.4321C56.3704 73.4568 56.2469 73.2922 56.2716 73.07C56.2881 72.9465 56.3457 72.8395 56.428 72.7572C56.5844 72.8971 56.7325 73.037 56.8725 73.1934Z" fill="#575757"/>
<path d="M53.7366 73.6379C53.9424 73.7119 54.1811 73.9588 54.2799 74.1975C54.3786 74.428 54.2881 74.5597 54.0823 74.4856C53.8766 74.4115 53.6379 74.1646 53.5391 73.9259C53.4486 73.6955 53.5391 73.5638 53.7366 73.6379Z" fill="#575757"/>
<path d="M55.9589 72.3951C55.9671 72.4115 55.9753 72.428 55.9753 72.4444C56.0329 72.6914 55.9589 72.9794 55.8189 73.1029C55.679 73.2181 55.5226 73.1193 55.465 72.8807C55.4074 72.6337 55.4815 72.3457 55.6214 72.2222C55.6296 72.214 55.6379 72.214 55.6461 72.214C55.679 72.2305 55.7119 72.2469 55.7449 72.2634C55.8189 72.3045 55.8848 72.3457 55.9589 72.3951Z" fill="#575757"/>
<path d="M54.6008 74.3786C54.6008 75.2675 55.2346 76.3539 56.0165 76.8066C56.7984 77.2593 57.4321 76.9053 57.4321 76.0164C57.4321 75.1275 56.7984 74.0411 56.0165 73.5884C55.2346 73.1358 54.6008 73.4897 54.6008 74.3786Z" fill="#CDCDCD"/>
<path d="M55.6214 73.4321C55.7448 73.465 55.8765 73.5061 56.0164 73.5884C56.7983 74.0411 57.4321 75.1275 57.4321 76.0164C57.4321 76.2551 57.3827 76.4527 57.3004 76.609L56.0082 76.3374C55.5061 75.9012 55.4403 75.4074 55.1522 74.7654L55.6214 73.4321Z" fill="#A9A9A9"/>
<path d="M55.5885 75.786C55.4897 75.6131 55.4156 75.4238 55.3416 75.2181C55.8848 75.0123 56.3868 74.716 56.8313 74.3456C57.07 74.6749 57.251 75.0617 57.3498 75.4403C56.7325 75.4485 56.1399 75.572 55.5885 75.786Z" fill="#DCDED9"/>
<path d="M54.6008 75.0288C54.6008 75.6625 55.0535 76.4362 55.6049 76.7489C56.1646 77.0699 56.6091 76.8148 56.6091 76.181C56.6091 75.5473 56.1564 74.7736 55.6049 74.4609C55.0535 74.1399 54.6008 74.395 54.6008 75.0288Z" fill="#A9A9A9"/>
<path d="M54.9053 75.4074C54.9053 75.7531 55.1523 76.1646 55.4486 76.3374C55.7531 76.5103 55.9918 76.3703 55.9918 76.0329C55.9918 75.6872 55.7448 75.2757 55.4486 75.0946C55.1523 74.93 54.9053 75.07 54.9053 75.4074Z" fill="#E0E0E0"/>
<path d="M58.7818 81.5555L60.9053 80.3292C60.9218 80.321 60.9464 80.3045 60.9629 80.2963L61.037 80.2551V80.2469C61.8518 79.7366 62.3456 78.7078 62.3456 77.251C62.3456 74.2222 60.181 70.5267 57.5226 68.9876C56.2057 68.2304 55.0041 68.1399 54.1316 68.6173L54.1234 68.609L54.3621 68.4691L54.3703 68.4773C55.2427 68 56.4362 68.0905 57.7613 68.8477C60.4279 70.3868 62.5843 74.0823 62.5843 77.1111C62.5843 78.5596 62.0822 79.5884 61.2757 80.107V80.1152L61.2016 80.1563C61.1851 80.1646 61.1604 80.181 61.144 80.1893L58.7818 81.5555Z" fill="black"/>
<path d="M58.7819 81.5556L59.8272 80.9547C59.8436 80.9465 59.8683 80.93 59.8848 80.9218L59.9589 80.8807V80.8724C60.7737 80.3621 61.2675 79.3333 61.2675 77.8766C61.2675 74.8477 59.1029 71.1523 56.4445 69.6132C55.1276 68.856 53.9259 68.7654 53.0535 69.2428L53.0453 69.2346L53.284 69.0947L53.2922 69.1029C54.1646 68.6255 55.358 68.7161 56.6831 69.4733C59.3498 71.0124 61.5062 74.7078 61.5062 77.7366C61.5062 79.1852 61.0041 80.214 60.1975 80.7325V80.7407L60.1235 80.7819C60.107 80.7901 60.0823 80.8066 60.0659 80.8148L58.7819 81.5556Z" fill="black"/>
<path d="M60.8066 73.7202L67.2346 77.1276L69.037 75.7119L70.6667 79.4156L70.3704 82.2963L67.572 82.4362L61.5144 78.9383L60.8066 73.7202Z" fill="#707070"/>
<path d="M60.8066 74L67.5062 77.5226L68.9547 76.0576L70.9383 79.8107V82.5926L69.6461 82.6914C68.4691 82.7819 67.3004 82.5103 66.2798 81.9177L61.786 79.3251L60.8066 74Z" fill="#3F3F3F"/>
<path d="M66.3951 78.107L61.9589 75.5391V77.1934L66.3951 79.7613V78.107Z" fill="#2F2E2A"/>
<path d="M66.3951 77.7366L61.9589 75.1687V76.823L62.6914 76.7901C63.6296 76.749 64.5268 77.144 65.1276 77.8683L66.3951 79.3992V77.7366Z" fill="#1F1E19"/>
<path d="M89.3992 60.8477L85.8601 63.5308V70.9876L74.2881 77.6708V70.3292L68.2963 72.9547L74.2799 69.5308L85.605 63.0206L89.3992 60.8477Z" fill="#EA7C00"/>
<path d="M88.2387 61.7284L85.8601 71.6049L84.1235 72.6173L83.8601 72.7819L83.358 73.0699L80.6914 74.6337L80.4198 74.7983L79.9177 75.0864L77.2428 76.6584L76.9959 76.8148L76.7407 76.9547L74.2881 78.395L68.535 71.0782L69.6708 70.1646L72.5021 68.3292L84.7161 61.8518L88.2387 59.3909V61.7284Z" fill="#F3D052"/>
<path d="M87.8025 60.2222L85.7202 68.1481L85.5638 65.0206C85.5638 63.177 86.3704 61.4486 87.7613 60.2552C87.7695 60.2469 87.786 60.2387 87.8025 60.2222Z" fill="#666666"/>
<path d="M89.7284 68.7572L85.8601 70.9877L85.7119 68.1646V68.1482L85.5555 65.0206C85.5555 63.177 86.3621 61.4486 87.7531 60.2552C87.7613 60.2469 87.7778 60.2387 87.7942 60.2222C87.8683 60.1564 87.9588 60.0905 88.0411 60.0247L88.8148 57.7943L89.4568 59.2181L89.7284 68.7572Z" fill="#F3D052"/>
<path d="M69.0946 77.9506L69.1358 76.4197L67.8271 71.3827L69.144 70.8148C69.3004 70.749 69.465 70.6996 69.6461 70.6749C70.6502 70.5185 71.9342 71.0453 72.8313 71.8518C72.8477 71.8601 72.856 71.8683 72.8724 71.8848C73.4979 72.4444 73.9177 73.144 73.9177 73.8271L74.0247 74.93V74.9383L74.1893 76.6667L74.2881 77.6625L69.7202 80.4527L69.0946 77.9506Z" fill="#F3D052"/>
<path d="M89.7284 63.7531L90 64.0905L89.6708 68.9053C89.7202 70.4115 89.2593 71.4814 88.1399 72.1316L70.8313 82.1399C70.1399 82.5678 69.5144 81.325 69.3004 80.4609L68.9712 75.7695L89.7284 63.7531Z" fill="#8C8C8C"/>
<path d="M89.0946 59.2181L85.5638 61.9012L79.3169 65.6132L73.9835 68.7078L67.8271 71.3827L67.3909 70.1646L88.823 57.7943L89.0946 59.2181Z" fill="#F3D052"/>
<path d="M85.9424 57.9094C85.1111 57.5555 84.1728 57.6049 83.3827 58.0576L83.1193 58.2057L83.5391 58L81.9259 56.9465L79.9671 58.074L76.3292 60.1728L76.3374 62.0987L67.0123 67.5061C67.4897 68.5185 68.7572 68.9382 69.7613 68.3621L74.0741 65.8683L79.6543 62.6502L84.9629 59.5802L87.0288 58.3868L85.9424 57.9094Z" fill="#6F94A3"/>
<path d="M64.5597 60.3621C64.535 60.2057 64.5103 60.0494 64.5103 59.8847C64.5103 59.5638 64.5597 59.251 64.6585 58.9876L54.0823 52.8889L53.4239 53.9424L64.5597 60.3621Z" fill="#B37A00"/>
<path d="M64.6584 58.9876C64.5596 59.251 64.5103 59.5638 64.5103 59.8848C64.5103 60.0494 64.5267 60.2057 64.5597 60.3621L64.8313 60.5185C65.2099 60.7325 65.6296 60.8477 66.0494 60.8395C66.2222 60.8395 66.395 60.823 66.5679 60.7819C66.7407 60.749 66.9136 60.6913 67.0782 60.609C67.144 60.5843 67.2099 60.5514 67.2757 60.5103L86.3292 49.5062C86.6913 49.3004 86.7983 48.8806 86.6584 48.5432C86.6008 48.395 86.0329 47.572 85.8683 47.4732C85.8683 47.4732 85.8683 47.465 85.8601 47.465L74.8642 41.5555L54.0905 52.8889L64.6584 58.9876Z" fill="#F3D052"/>
<path d="M64.5103 59.8848C64.5103 60.0494 64.5267 60.2057 64.5596 60.3621L64.8312 60.5185C65.2098 60.7325 65.6296 60.8477 66.0494 60.8395C66.2222 60.8395 66.395 60.823 66.5679 60.7819C66.7407 60.7407 66.9136 60.6831 67.0782 60.609C67.1358 60.3786 67.1769 60.1317 67.1769 59.8765C67.1769 59.679 67.1605 59.4979 67.1193 59.3251C66.9629 58.5185 66.4444 57.9259 65.8436 57.9259C65.3333 57.9259 64.8806 58.3539 64.6666 58.9794C64.5679 59.2592 64.5103 59.5638 64.5103 59.8848Z" fill="#C7A22A"/>
<path d="M54.0905 52.8889L64.6666 58.9877L65.037 59.2017C65.679 59.572 66.4527 59.6132 67.1193 59.3251C67.2099 59.2922 67.2922 59.251 67.3745 59.2017L85.6872 48.6255C86.1152 48.3786 86.1728 47.8189 85.8601 47.4815C85.8601 47.4815 85.8601 47.4733 85.8518 47.4733C85.8024 47.4239 85.7531 47.3745 85.6872 47.3416L74.6831 40.9877L54.0905 52.8889Z" fill="#FAE35A"/>
<path d="M64.0329 65.9341C64.0164 65.7283 64 65.5308 63.9753 65.3333L63.4238 61.2345C63.3415 60.9382 63.1769 60.6749 62.9465 60.4773C62.8724 60.4115 62.7901 60.3539 62.6996 60.3045L59.6955 58.5596C59.6461 58.5267 59.5885 58.5102 59.5308 58.4938C59.2016 58.4115 58.8559 58.609 58.7654 58.93C58.749 58.9876 58.7407 59.0452 58.7407 59.1028V63.1604C58.7407 63.3004 58.7819 63.6131 58.7901 63.6296C58.9218 64.3703 59.3909 64.7818 60.0411 65.4074L63.5391 68.5267C64.3457 68.5432 64.0905 66.7489 64.0329 65.9341Z" fill="url(#paint2_linear_246_12941)"/>
<path d="M57.6625 62.8559L57.6461 58.7078C57.6461 58.1893 57.3662 57.7119 56.9218 57.4485L54.8806 56.2716C54.502 56.0493 54.0247 56.3292 54.0247 56.7654L54.0411 60.9053C54.0411 61.3415 54.2716 61.7366 54.6502 61.9588L56.9382 63.2757C57.2592 63.465 57.6625 63.2345 57.6625 62.8559Z" fill="#9F5B0F"/>
<path d="M57.1769 63.0041C57.1523 63.0041 57.1276 62.9958 57.1111 62.9876L54.823 61.6707C54.5514 61.5144 54.3868 61.2263 54.3868 60.9218L54.3704 56.7819C54.3704 56.6419 54.4856 56.5596 54.5926 56.5596C54.6337 56.5596 54.6667 56.5679 54.6996 56.5926L56.7407 57.7695C57.0782 57.967 57.2922 58.3292 57.2922 58.7242L57.3086 62.8724C57.3169 62.93 57.2428 63.0041 57.1769 63.0041Z" fill="#B37A00"/>
<path d="M52.0823 67.5967C52.9959 67.4321 54.0905 67.6543 55.2675 68.3375C58.3292 70.0988 60.823 74.2798 60.9794 77.8025V79.1111L61.7366 78.6749V77.3827C61.5802 73.8518 59.0864 69.679 56.0247 67.9177C54.8395 67.2263 53.7284 67.0041 52.8148 67.1852L52.0823 67.5967Z" fill="#252525"/>
<path d="M55.2592 68.3374C58.321 70.0987 60.8148 74.2798 60.9712 77.8024V79.1111L60.5844 78.8889V77.5802C60.5761 77.4156 60.5597 77.251 60.535 77.1028C60.107 73.8436 57.8189 70.2469 55.0782 68.6749C54.2387 68.1893 53.4156 67.9341 52.6831 67.9341C52.609 67.9341 52.535 67.9341 52.4691 67.9424C52.3374 67.9424 52.214 67.9588 52.0905 67.9835V67.6131C52.9959 67.4321 54.0823 67.6543 55.2592 68.3374Z" fill="black"/>
<path d="M76.9465 50.0247C76.7983 50.2798 77.0699 50.716 77.5473 50.9959C78.0329 51.2757 78.5432 51.2922 78.6913 51.037C78.8395 50.7819 78.5679 50.3457 78.0905 50.0658C77.6049 49.7778 77.0946 49.7613 76.9465 50.0247Z" fill="#9F5B0F"/>
<path d="M73.6214 51.9423C73.4733 52.1975 73.7449 52.6337 74.2222 52.9135C74.7078 53.1934 75.2181 53.2098 75.3663 52.9547C75.5144 52.6995 75.2428 52.2633 74.7654 51.9835C74.2798 51.7037 73.7696 51.6872 73.6214 51.9423Z" fill="#9F5B0F"/>
<path d="M70.2469 53.893C70.0988 54.1482 70.3704 54.5844 70.8477 54.8642C71.3333 55.144 71.8436 55.1605 71.9918 54.9054C72.1399 54.6502 71.8683 54.214 71.3909 53.9342C70.9053 53.6543 70.395 53.6379 70.2469 53.893Z" fill="#9F5B0F"/>
<path d="M77.4403 50.0247C77.2922 50.2798 77.5638 50.716 78.0411 50.9959C78.5267 51.2757 79.037 51.2922 79.1852 51.037C79.3333 50.7819 79.0617 50.3457 78.5844 50.0658C78.0988 49.7778 77.5885 49.7613 77.4403 50.0247Z" fill="#DA5400"/>
<path d="M74.107 51.9423C73.9589 52.1975 74.2305 52.6337 74.7078 52.9135C75.1934 53.1934 75.7037 53.2098 75.8519 52.9547C76 52.6995 75.7284 52.2633 75.251 51.9835C74.7654 51.7037 74.2552 51.6872 74.107 51.9423Z" fill="#DA5400"/>
<path d="M70.7325 53.893C70.5843 54.1482 70.8559 54.5844 71.3333 54.8642C71.8107 55.144 72.3292 55.1605 72.4773 54.9054C72.6255 54.6502 72.3539 54.214 71.8765 53.9342C71.3909 53.6543 70.8806 53.6379 70.7325 53.893Z" fill="#DA5400"/>
<path d="M71.1687 53.9094C71.0946 54.0411 71.2345 54.2551 71.4732 54.395C71.7201 54.535 71.9753 54.5432 72.0493 54.4115C72.1234 54.2798 71.9835 54.0658 71.7448 53.9259C71.4979 53.786 71.2428 53.7778 71.1687 53.9094Z" fill="#FFB345"/>
<path d="M74.5432 51.9753C74.4691 52.107 74.609 52.321 74.8477 52.4609C75.0946 52.6008 75.3498 52.6091 75.4238 52.4774C75.4979 52.3457 75.358 52.1317 75.1193 51.9918C74.8724 51.8518 74.6173 51.8436 74.5432 51.9753Z" fill="#FFB345"/>
<path d="M77.9177 50.0329C77.8436 50.1646 77.9835 50.3785 78.2222 50.5185C78.4692 50.6584 78.7243 50.6666 78.7984 50.5349C78.8724 50.4032 78.7325 50.1892 78.4938 50.0493C78.2469 49.9176 77.9918 49.9094 77.9177 50.0329Z" fill="#FFB345"/>
<path d="M61.6379 70.4938L63.9177 69.1852V63.1276L61.6379 64.4362V70.4938Z" fill="#111111"/>
<path d="M63.786 69.0041V63.8271L62.2716 64.6996V69.8765L63.786 69.0041Z" fill="#242424"/>
<path d="M63.9177 63.1276L63.786 63.8272L62.2716 64.6996L61.6379 64.4362L63.9177 63.1276Z" fill="#212121"/>
<path d="M62.2716 69.8765L61.6379 70.4938L63.9177 69.1852L63.786 69.0041L62.2716 69.8765Z" fill="#030303"/>
<path d="M62.8889 67.6625L63.391 67.3745V68.288L62.8889 68.5761L62.7819 68.5103V67.5967L62.8889 67.6625Z" fill="#161714"/>
<path d="M63.391 68.0411V67.1276L62.8889 67.4156V68.3292L63.391 68.0411Z" fill="#111111"/>
<path d="M63.391 67.1275L63.2757 67.0617L62.7819 67.3498L62.8889 67.4156L63.391 67.1275Z" fill="#212121"/>
<path d="M62.7819 68.2634V67.3498L62.8889 67.4156V68.3292L62.7819 68.2634Z" fill="#030303"/>
<path d="M63.5144 59.4814L62.7242 60.0658L62.9958 68.6419L63.2839 68.5185L63.465 61.0205L64.0576 60.5761L63.5144 59.4814Z" fill="black"/>
<path d="M90 64.1399V69.5061C90 70.8066 89.5391 71.8765 88.4197 72.5185L71.1029 82.5267C70.2963 82.9876 69.3004 81.3827 69.3004 80.4609L68.9547 76.0576L90 64.1399Z" fill="#4E4E4E"/>
<path d="M88.4198 70.7984L71.0946 80.8066C71.0453 80.8395 70.9877 80.856 70.93 80.8724H70.9218C70.8642 80.8807 70.8148 80.8889 70.7572 80.8806L69.6379 80.963C68.4609 81.0535 67.2922 80.7819 66.2716 80.1893L61.7778 77.5967L61.1523 74.1728L60.8066 73.9918L61.786 79.3169L66.2798 81.9095C67.3004 82.4938 68.4691 82.7654 69.6461 82.6831L70.7654 82.6008C70.823 82.6008 70.8724 82.6008 70.93 82.5926H70.9383C70.9959 82.5761 71.0453 82.5597 71.1029 82.5267L88.4198 72.5185C89.5391 71.8683 90 70.7984 90 69.5062V67.786C90 69.0864 89.5391 70.1564 88.4198 70.7984Z" fill="#3B3A36"/>
<path d="M86.4362 61.8683V63.4568C86.395 63.9835 86.181 63.9012 85.5638 64.3292C84.1728 65.3004 83.2016 65.9588 81.6461 66.9382C80.1728 67.8683 76.4197 69.9177 74.3868 70.9053C74.1975 70.9876 73.2675 71.4897 73.1605 71.0946L73.1522 71.0288L73.1111 69.4485L86.0987 62.0658L86.4362 61.8683Z" fill="#FAED76"/>
<path d="M86.0987 62.0658V62.1152C86.0576 62.6419 85.8436 63.7036 85.2263 64.1316C83.8354 65.1028 82.8642 65.7613 81.3086 66.7407C79.8354 67.6707 76.0823 69.7201 74.0494 70.6995C73.9259 70.7654 73.4732 70.9958 73.1522 71.0287L73.1111 69.4485L86.0987 62.0658Z" fill="#4E4E4E"/>
<path d="M82.0987 45.7037C82.0987 45.9753 81.8683 46.2058 81.4568 46.7737C81.4321 46.5679 81.3909 46.3621 81.358 46.1564C81.3415 46.0741 81.3251 45.9835 81.3086 45.9012C80.395 41.5391 77.0617 39.3662 74.4938 38.3127L72.4691 36.716L72.8642 36.4774C73.893 36.7243 75.6378 37.2675 77.3415 38.3539L77.3498 38.3621C79.5391 39.7448 81.6461 42.0165 82.0987 45.7037Z" fill="#F1C435"/>
<path d="M81.4651 46.8066V46.8231L73.6214 51.9506L64.8231 56.5597C63.8272 48.3786 54.6749 47.144 54.6749 47.144L72.4692 36.7078L72.8642 36.4691L73.8354 35.9012C73.8354 35.9012 73.8354 35.9012 73.8437 35.9012C73.9342 35.9259 75.5885 36.6338 77.3498 38.3457L77.3581 38.3539C78.9795 39.9342 80.6832 42.3621 81.3087 45.893C81.3251 45.9753 81.3416 46.0659 81.3581 46.1482C81.391 46.3457 81.4239 46.5597 81.4486 46.7737C81.4568 46.7819 81.4568 46.7901 81.4651 46.8066Z" fill="#FAED76"/>
<path d="M54.6749 47.1358V52.5432L60.8313 56.0165C62.0412 56.6996 63.4815 56.8889 64.8231 56.535C63.8272 48.3704 54.6749 47.1358 54.6749 47.1358Z" fill="#C7A22A"/>
<path d="M54.6749 47.1358V47.8848C57.4157 49.0041 61.0288 51.4074 61.6379 56.3786C61.6297 56.3786 61.6214 56.3786 61.6132 56.3868C62.6338 56.7654 63.7531 56.8313 64.8231 56.5514C63.8272 48.3704 54.6749 47.1358 54.6749 47.1358Z" fill="#F1C435"/>
<path d="M81.4476 46.7737C81.4476 46.7737 81.4554 46.7737 81.4476 46.7737L81.4554 46.797C81.4476 46.797 81.4398 46.797 81.4321 46.8047C81.4321 46.797 81.4398 46.7814 81.4476 46.7737Z" fill="#D2D6E4"/>
<path d="M73.3086 78.7572L71.7037 79.7284C71.2016 80.0329 70.5432 79.8601 70.2551 79.3333L70.0494 79.0452V76.4773C70.0494 76.107 70.2469 75.7695 70.5761 75.5967L72.0411 74.7901C72.2551 74.6667 72.5185 74.8066 72.535 75.0535L72.5597 75.4403L72.6173 76.2222L72.7572 78.1234L73.3086 78.7572Z" fill="#ECF1F6"/>
<path d="M72.5679 75.4486C72.5514 75.4979 72.5267 75.5556 72.502 75.6132L71.9918 77.1111L70.2963 78.0412L70.0494 78.3621V76.4856C70.0494 76.1152 70.2469 75.7778 70.5761 75.6049L72.0411 74.7983C72.2551 74.6749 72.5185 74.8148 72.535 75.0617L72.5679 75.4486Z" fill="#C4D8EC"/>
<path d="M89.3827 65.3415V67.9588L89.0782 69.0453C88.856 69.8601 87.9671 70.5267 87.0864 71.0288L87.2099 69.7037L87.284 68.1893L87.358 66.6255C87.3745 66.2716 87.5638 65.9424 87.8683 65.7531L88.9053 65.0946C89.1193 64.9629 89.3827 65.1029 89.3827 65.3415Z" fill="#ECF1F6"/>
<path d="M89.3827 65.3415V66.9547L87.2922 68.181L87.3663 66.6173C87.3827 66.2633 87.572 65.9341 87.8765 65.7448L88.9136 65.0864C89.1193 64.9629 89.3827 65.1028 89.3827 65.3415Z" fill="#C4D8EC"/>
<path d="M71.8519 79.432L72.9218 78.7572L72.5021 78.2716L72.7655 78.1152L71.8601 78.6666C71.358 78.9711 70.6996 78.7901 70.4198 78.2716L70.1893 77.8518V78.7489L70.4033 79.0452C70.6914 79.5555 71.3416 79.7366 71.8519 79.432Z" fill="#FF8D31"/>
<path d="M87.9094 69.3251L87.4732 69.5473L87.3827 70.5514L88.0658 70.1646C88.4773 69.9342 88.6996 69.6955 88.93 68.8807L89.2345 67.7942V66.8642L89.0864 67.3909C88.8559 68.214 88.321 69.0947 87.9094 69.3251Z" fill="#FF8D31"/>
<path d="M86.5267 66.7325V67.9094C86.4856 68.4033 86.3868 68.4362 85.7942 68.8477C84.4609 69.7695 83.4321 70.2963 81.9424 71.2345C80.535 72.1317 76.9959 74.0823 75.0453 75.0288C74.8642 75.1193 73.9259 75.5884 73.8272 75.2098V75.1605L73.7778 73.9835L86.1975 66.93L86.5267 66.7325Z" fill="#8C8C8C"/>
<path d="M86.2057 66.9218V66.9711C86.1646 67.465 86.0658 68.2469 85.4732 68.6584C84.1399 69.5802 83.1111 70.1069 81.6214 71.0452C80.214 71.9423 76.6749 73.8929 74.7243 74.8394C74.609 74.8971 74.1317 75.1275 73.8272 75.1522L73.7778 73.9752L86.2057 66.9218Z" fill="#0E0E0E"/>
<path d="M86.5267 68.9712V70.1481C86.4856 70.642 86.3868 70.6749 85.7942 71.0864C84.4609 72.0082 83.4321 72.535 81.9424 73.4732C80.535 74.3704 76.9959 76.321 75.0453 77.2675C74.8642 77.358 73.9259 77.8272 73.8272 77.4486V77.3992L73.7778 76.2222L86.1975 69.1687L86.5267 68.9712Z" fill="#8C8C8C"/>
<path d="M86.2057 69.1605V69.2099C86.1646 69.7037 86.0658 70.4856 85.4732 70.8971C84.1399 71.819 83.1111 72.3457 81.6214 73.284C80.214 74.1811 76.6749 76.1317 74.7243 77.0782C74.609 77.1358 74.1317 77.3663 73.8272 77.391L73.7778 76.214L86.2057 69.1605Z" fill="#0E0E0E"/>
<path d="M79.251 72.7243C79.2428 72.1482 79.6461 71.4403 80.1482 71.144C80.1646 71.1358 80.1729 71.1358 80.1811 71.1276L80.6831 71.037C80.9054 71.0947 81.0618 71.3087 81.0618 71.6543C81.07 72.2305 80.6667 72.9383 80.1646 73.2346C79.6708 73.5227 79.251 73.3004 79.251 72.7243Z" fill="#DCE4E8"/>
<path d="M88.3867 56.2386L88.5678 56.4938C88.502 57.3498 87.967 57.8354 86.9629 58.5349C84.6995 60.1152 83.1192 60.9547 80.5843 62.5514C78.181 64.0658 71.7777 67.8024 68.4526 69.4156C68.148 69.5473 66.9464 70.1481 66.7818 69.4979L66.7324 69.2181L66.6666 68.6008L87.8353 56.5596L88.3867 56.2386Z" fill="white"/>
<path d="M88.568 56.4856V57.1193C88.5021 57.9753 88.1482 58.0741 87.1441 58.7819C84.8807 60.3621 83.3005 61.2016 80.7655 62.7984C78.3622 64.3128 72.2552 67.6543 68.9301 69.2593C68.6255 69.3909 67.2511 70.1481 67.0865 69.4897L67.07 69.3909L67.0042 68.7737L88.0247 56.8066L88.568 56.4856Z" fill="#C4D3E2"/>
<path d="M66.6585 68.5925L66.9959 68.7736L67.07 69.4403C67.07 69.4403 67.1523 69.7283 67.3416 69.7366C67.5309 69.753 67.5885 69.7366 67.5885 69.7366C67.5885 69.7366 67.1605 69.8436 66.9959 69.753C66.8313 69.6625 66.7408 69.679 66.6996 69.251C66.6502 68.823 66.6585 68.5925 66.6585 68.5925Z" fill="#8BA9C7"/>
<path d="M70.8313 77.3416C70.823 76.8806 71.144 76.321 71.5473 76.0823C71.5556 76.0741 71.5638 76.0741 71.5802 76.0658L71.9835 75.9918C72.1646 76.0411 72.2798 76.2058 72.2881 76.4856C72.2963 76.9465 71.9753 77.5062 71.572 77.7448C71.1687 77.9753 70.8395 77.7942 70.8313 77.3416Z" fill="#FBFCFD"/>
<path d="M87.5061 67.9094C87.4979 67.4485 87.8189 66.8888 88.2222 66.6502C88.2304 66.6419 88.2387 66.6419 88.2551 66.6337L88.6584 66.5596C88.8395 66.609 88.9547 66.7736 88.9629 67.0535C88.9712 67.5144 88.6502 68.074 88.2469 68.3127C87.8436 68.5432 87.5144 68.3703 87.5061 67.9094Z" fill="#FBFCFD"/>
<path d="M26.3786 48.0494V48.8066C26.3786 48.9465 26.4527 49.0864 26.5844 49.1523L27.9424 49.9342C28.0494 50 28.1893 49.9177 28.1893 49.7942V49.7037L27.0535 49.0453C26.93 48.9712 26.8477 48.8395 26.8477 48.6996V48.0329L26.6255 47.9095C26.5103 47.8436 26.3786 47.9259 26.3786 48.0494Z" fill="#658391"/>
<path d="M26.8477 48.0329V48.6996C26.8477 48.8395 26.9218 48.9794 27.0535 49.0452L28.1893 49.7037V49.037C28.1893 48.8889 28.1152 48.7572 27.9835 48.6831L26.8477 48.0329Z" fill="#B8571F"/>
<path d="M37.2017 54.2963V55.0535C37.2017 55.1934 37.2757 55.3333 37.4074 55.3991L38.7654 56.181C38.8724 56.2469 39.0124 56.1646 39.0124 56.0411V55.9506L37.8766 55.2922C37.7531 55.2181 37.6708 55.0864 37.6708 54.9465V54.2798L37.4486 54.1563C37.3416 54.0905 37.2017 54.1728 37.2017 54.2963Z" fill="#658391"/>
<path d="M37.6708 54.2798V54.9465C37.6708 55.0864 37.7449 55.2263 37.8765 55.2921L39.0123 55.9506V55.2839C39.0123 55.1357 38.9383 55.0041 38.8066 54.93L37.6708 54.2798Z" fill="#B8571F"/>
<path d="M48.6091 60.8724V61.6296C48.6091 61.7696 48.6831 61.9095 48.8148 61.9753L50.1729 62.7572C50.2798 62.8231 50.4198 62.7408 50.4198 62.6173V62.5268L49.284 61.8683C49.1605 61.7942 49.0782 61.6626 49.0782 61.5226V60.856L48.856 60.7325C48.7408 60.6667 48.6091 60.749 48.6091 60.8724Z" fill="#658391"/>
<path d="M49.0782 60.856V61.5226C49.0782 61.6625 49.1523 61.8025 49.2839 61.8683L50.4197 62.5267V61.8601C50.4197 61.7119 50.3457 61.5802 50.214 61.5062L49.0782 60.856Z" fill="#B8571F"/>
<path d="M5.01233 35.679V36.4362C5.01233 36.5761 5.0864 36.7161 5.21809 36.7819L6.57612 37.5638C6.68311 37.6296 6.82303 37.5473 6.82303 37.4239V37.3333L5.68723 36.6749C5.56377 36.6008 5.48146 36.4691 5.48146 36.3292V35.6626L5.25924 35.5391C5.15225 35.4733 5.01233 35.5556 5.01233 35.679Z" fill="#658391"/>
<path d="M5.48145 35.6625V36.3292C5.48145 36.4691 5.55552 36.609 5.68721 36.6749L6.82301 37.3333V36.6666C6.82301 36.5185 6.74894 36.3868 6.61725 36.3127L5.48145 35.6625Z" fill="#B8571F"/>
<path d="M15.2922 41.6296V42.3868C15.2922 42.5267 15.3662 42.6667 15.4979 42.7325L16.856 43.5144C16.963 43.5802 17.1029 43.4979 17.1029 43.3745V43.2922L15.9671 42.6337C15.8436 42.5597 15.7613 42.428 15.7613 42.2881V41.6214L15.5391 41.4979C15.4239 41.4239 15.2922 41.5062 15.2922 41.6296Z" fill="#658391"/>
<path d="M15.7613 41.6132V42.2798C15.7613 42.4197 15.8354 42.5597 15.9671 42.6255L17.1029 43.2839V42.6173C17.1029 42.4691 17.0288 42.3374 16.8971 42.2634L15.7613 41.6132Z" fill="#B8571F"/>
<path d="M10.3621 30.0247L10.3539 32.2881L6.70782 30.1728L6.73252 19.5226L8.09877 20.321L8.08231 28.6996L10.3621 30.0247Z" fill="#8BA9C7"/>
<path d="M16.4774 30.502C16.4691 33.6049 15.2181 35.2428 13.5556 34.2716C11.9012 33.3086 10.6584 30.2469 10.6667 27.1276C10.6749 24.0247 11.9259 22.4527 13.5802 23.4156C15.2428 24.3786 16.4856 27.4156 16.4774 30.502ZM12.0576 27.9506C12.0494 29.7448 12.749 31.5391 13.572 32.0164C14.4033 32.4938 15.0617 31.4979 15.07 29.7037C15.0782 27.9095 14.4198 26.1728 13.5885 25.6872C12.7572 25.2099 12.0658 26.1564 12.0576 27.9506Z" fill="#8BA9C7"/>
<path d="M21.8436 33.5473L21.8354 37.6954C21.2593 38.1646 20.3539 38.2222 19.5967 37.7778C17.9589 36.8313 16.7325 33.7695 16.7408 30.6666C16.749 27.5802 18.0247 25.9918 19.7202 26.9712C20.5185 27.4321 21.358 28.535 21.9095 29.8271L21.1358 31.2181C20.749 30.2798 20.2058 29.5144 19.7037 29.2263C18.8231 28.716 18.1399 29.6872 18.1399 31.465C18.1317 33.2757 18.8148 35.037 19.7037 35.5555C19.9836 35.7201 20.3375 35.7201 20.6585 35.5885L20.6667 32.8395L21.8436 33.5473Z" fill="#8BA9C7"/>
<path d="M22.7819 39.5144L22.8066 28.8642L24.1729 29.6543L24.1482 40.3045L22.7819 39.5144Z" fill="#8BA9C7"/>
<path d="M29.4321 33.7778L28.9136 35.5967C28.3457 34.609 27.6379 33.7448 27.1934 33.4897C26.8395 33.2839 26.6008 33.4074 26.6008 33.9259C26.5926 35.7695 29.4403 36.3704 29.4321 40.214C29.4239 42.3457 28.4691 42.9136 27.2757 42.2222C26.3786 41.7037 25.4568 40.4938 24.8231 39.0946L25.358 37.3169C25.9095 38.5926 26.7325 39.7201 27.3004 40.0411C27.7284 40.288 28 40.1317 28 39.5226C28.0082 37.6378 25.1605 37.1111 25.1687 33.3415C25.177 31.3827 26.0329 30.6255 27.3169 31.3745C28.0905 31.8107 28.8807 32.7407 29.4321 33.7778Z" fill="#8BA9C7"/>
<path d="M32.6749 36.7737L32.6502 45.2428L31.284 44.4527L31.3087 35.9835L29.7037 35.0535L29.712 32.8642L34.3046 35.5309L34.2963 37.7202L32.6749 36.7737Z" fill="#8BA9C7"/>
<path d="M34.856 46.5267L34.8807 35.8848L36.2469 36.6749L36.2222 47.3169L34.856 46.5267Z" fill="#8BA9C7"/>
<path d="M42 41.7202L41.2017 43.1194C40.8477 42.0659 40.3292 41.2264 39.8519 40.9548C38.9959 40.4609 38.3539 41.4239 38.3457 43.1688C38.3375 44.9465 38.9794 46.6749 39.8354 47.1688C40.2881 47.4321 40.8148 47.2511 41.1934 46.7079L41.9835 48.8478C41.4074 49.6873 40.5515 49.9671 39.7613 49.5062C38.1399 48.5679 36.9383 45.5062 36.9465 42.3869C36.9547 39.3169 38.1975 37.7202 39.8354 38.6749C40.642 39.1358 41.465 40.3128 42 41.7202Z" fill="#8BA9C7"/>
<path d="M46.8148 43.8766L46.2963 45.6955C45.7284 44.7078 45.0206 43.8437 44.5761 43.5885C44.2222 43.3827 43.9835 43.5062 43.9835 44.0247C43.9753 45.8683 46.823 46.4692 46.8148 50.3128C46.8066 52.4445 45.8518 53.0124 44.6584 52.321C43.7613 51.8025 42.8395 50.5926 42.2057 49.1934L42.7407 47.4157C43.2922 48.6914 44.1152 49.8107 44.6831 50.1399C45.1111 50.3869 45.3827 50.2305 45.3827 49.6214C45.3909 47.7367 42.5432 47.2099 42.5514 43.4404C42.5597 41.4815 43.4156 40.7243 44.6996 41.4733C45.4732 41.9095 46.2634 42.8395 46.8148 43.8766Z" fill="#8BA9C7"/>
</g>
<defs>
<linearGradient id="paint0_linear_246_12941" x1="82.9254" y1="55.4738" x2="86.5617" y2="48.3728" gradientUnits="userSpaceOnUse">
<stop stop-color="#92C6B9"/>
<stop offset="0.9409" stop-color="#6F797B"/>
</linearGradient>
<linearGradient id="paint1_linear_246_12941" x1="78.7123" y1="63.0115" x2="75.6034" y2="56.6344" gradientUnits="userSpaceOnUse">
<stop offset="0.0837" stop-color="#597E90"/>
<stop offset="0.4241" stop-color="#4D6976"/>
<stop offset="0.9409" stop-color="#3C4B52"/>
</linearGradient>
<linearGradient id="paint2_linear_246_12941" x1="60.2741" y1="66.8785" x2="62.6922" y2="59.624" gradientUnits="userSpaceOnUse">
<stop offset="0.0837" stop-color="#305F76"/>
<stop offset="0.4391" stop-color="#29485A"/>
<stop offset="0.9409" stop-color="#1F2B36"/>
</linearGradient>
<clipPath id="clip0_246_12941">
<rect width="90" height="82.7078" fill="white"/>
</clipPath>
</defs>
</svg>
