<svg width="199" height="45" viewBox="0 0 199 45" fill="none" xmlns="http://www.w3.org/2000/svg">
<path d="M85.581 36.444C83.5337 36.444 81.548 36.1727 79.624 35.63C77.7247 35.0627 76.1953 34.335 75.036 33.447L77.071 28.933C78.181 29.747 79.5007 30.4007 81.03 30.894C82.5593 31.3873 84.0887 31.634 85.618 31.634C87.32 31.634 88.578 31.3873 89.392 30.894C90.206 30.376 90.613 29.6977 90.613 28.859C90.613 28.2423 90.3663 27.7367 89.873 27.342C89.4043 26.9227 88.7877 26.5897 88.023 26.343C87.283 26.0963 86.2717 25.825 84.989 25.529C83.0157 25.0603 81.4 24.5917 80.142 24.123C78.884 23.6543 77.7987 22.902 76.886 21.866C75.998 20.83 75.554 19.4487 75.554 17.722C75.554 16.2173 75.961 14.8607 76.775 13.652C77.589 12.4187 78.81 11.4443 80.438 10.729C82.0907 10.0137 84.101 9.656 86.469 9.656C88.1217 9.656 89.7373 9.85333 91.316 10.248C92.8947 10.6427 94.276 11.21 95.46 11.95L93.61 16.501C91.2173 15.1443 88.8247 14.466 86.432 14.466C84.7547 14.466 83.509 14.7373 82.695 15.28C81.9057 15.8227 81.511 16.538 81.511 17.426C81.511 18.314 81.9673 18.98 82.88 19.424C83.8173 19.8433 85.2357 20.2627 87.135 20.682C89.1083 21.1507 90.724 21.6193 91.982 22.088C93.24 22.5567 94.313 23.2967 95.201 24.308C96.1137 25.3193 96.57 26.6883 96.57 28.415C96.57 29.895 96.1507 31.2517 95.312 32.485C94.498 33.6937 93.2647 34.6557 91.612 35.371C89.9593 36.0863 87.949 36.444 85.581 36.444ZM112.358 15.798C114.824 15.798 116.81 16.538 118.315 18.018C119.844 19.498 120.609 21.6933 120.609 24.604V36H114.837V25.492C114.837 23.9133 114.491 22.7417 113.801 21.977C113.11 21.1877 112.111 20.793 110.804 20.793C109.348 20.793 108.189 21.2493 107.326 22.162C106.462 23.05 106.031 24.382 106.031 26.158V36H100.259V8.546H106.031V18.166C106.795 17.4013 107.72 16.8217 108.806 16.427C109.891 16.0077 111.075 15.798 112.358 15.798ZM145.557 26.121C145.557 26.195 145.52 26.713 145.446 27.675H130.387C130.658 28.9083 131.299 29.8827 132.311 30.598C133.322 31.3133 134.58 31.671 136.085 31.671C137.121 31.671 138.033 31.523 138.823 31.227C139.637 30.9063 140.389 30.413 141.08 29.747L144.151 33.077C142.276 35.223 139.538 36.296 135.937 36.296C133.692 36.296 131.706 35.8643 129.98 35.001C128.253 34.113 126.921 32.892 125.984 31.338C125.046 29.784 124.578 28.0203 124.578 26.047C124.578 24.0983 125.034 22.347 125.947 20.793C126.884 19.2143 128.154 17.9933 129.758 17.13C131.386 16.242 133.199 15.798 135.197 15.798C137.145 15.798 138.909 16.2173 140.488 17.056C142.066 17.8947 143.3 19.1033 144.188 20.682C145.1 22.236 145.557 24.049 145.557 26.121ZM135.234 20.164C133.926 20.164 132.829 20.534 131.941 21.274C131.053 22.014 130.51 23.0253 130.313 24.308H140.118C139.92 23.05 139.378 22.051 138.49 21.311C137.602 20.5463 136.516 20.164 135.234 20.164ZM161.165 15.798C163.015 15.798 164.693 16.2297 166.197 17.093C167.727 17.9317 168.923 19.128 169.786 20.682C170.65 22.2113 171.081 23.9997 171.081 26.047C171.081 28.0943 170.65 29.895 169.786 31.449C168.923 32.9783 167.727 34.1747 166.197 35.038C164.693 35.8767 163.015 36.296 161.165 36.296C158.625 36.296 156.627 35.4943 155.171 33.891V43.178H149.399V16.094H154.912V18.388C156.343 16.6613 158.427 15.798 161.165 15.798ZM160.166 31.56C161.646 31.56 162.855 31.0667 163.792 30.08C164.754 29.0687 165.235 27.7243 165.235 26.047C165.235 24.3697 164.754 23.0377 163.792 22.051C162.855 21.0397 161.646 20.534 160.166 20.534C158.686 20.534 157.465 21.0397 156.503 22.051C155.566 23.0377 155.097 24.3697 155.097 26.047C155.097 27.7243 155.566 29.0687 156.503 30.08C157.465 31.0667 158.686 31.56 160.166 31.56ZM187.784 35.038C187.217 35.4573 186.514 35.778 185.675 36C184.861 36.1973 183.998 36.296 183.085 36.296C180.717 36.296 178.88 35.6917 177.572 34.483C176.29 33.2743 175.648 31.4983 175.648 29.155V20.978H172.577V16.538H175.648V11.691H181.42V16.538H186.378V20.978H181.42V29.081C181.42 29.9197 181.63 30.5733 182.049 31.042C182.493 31.486 183.11 31.708 183.899 31.708C184.812 31.708 185.589 31.4613 186.23 30.968L187.784 35.038ZM193.569 36.296C192.557 36.296 191.706 35.9507 191.016 35.26C190.325 34.5693 189.98 33.706 189.98 32.67C189.98 31.6093 190.325 30.7583 191.016 30.117C191.706 29.451 192.557 29.118 193.569 29.118C194.58 29.118 195.431 29.451 196.122 30.117C196.812 30.7583 197.158 31.6093 197.158 32.67C197.158 33.706 196.812 34.5693 196.122 35.26C195.431 35.9507 194.58 36.296 193.569 36.296Z" fill="white"/>
<path d="M22.4993 26.0818V33.6639L12.3344 41.5909C11.5547 42.1976 10.8054 42.5443 10.081 42.5443C9.02678 42.5443 8.02592 41.8135 7.06128 40.0918C7.05938 40.0878 7.05747 40.0839 7.05556 40.0799L0.181107 27.7779C0.181107 27.7759 0.181107 27.7759 0.179201 27.7759L0.102945 27.64C0.102945 27.638 0.101039 27.638 0.101039 27.638C0.0362215 27.4922 0 27.3346 0 27.1672C0 26.5683 0.470879 26.0818 1.05042 26.0818H22.4993Z" fill="#C4C4C4"/>
<path d="M22.4993 26.0818V33.6639L12.3344 41.5909C11.5547 42.1976 10.8054 42.5443 10.081 42.5443C9.02678 42.5443 8.02592 41.8135 7.06128 40.0918C7.05938 40.0878 7.05747 40.0839 7.05556 40.0799L0.181107 27.7779C0.181107 27.7759 0.181107 27.7759 0.179201 27.7759L0.102945 27.64C0.102945 27.638 0.101039 27.638 0.101039 27.638C0.0362215 27.4922 0 27.3346 0 27.1672C0 26.5683 0.470879 26.0818 1.05042 26.0818H22.4993Z" fill="black" fill-opacity="0.2"/>
<path d="M22.4993 17.9184V10.3362L12.3344 2.40928C11.5547 1.80255 10.8054 1.45584 10.081 1.45584C9.02678 1.45584 8.02592 2.18668 7.06128 3.91036C7.05938 3.91429 7.05747 3.91823 7.05556 3.92217L0.181107 16.2223C0.181107 16.2243 0.181107 16.2243 0.179201 16.2243L0.102945 16.3602C0.102945 16.3622 0.101039 16.3622 0.101039 16.3622C0.0362215 16.506 0 16.6656 0 16.833C0 17.4338 0.470879 17.9184 1.05042 17.9184H22.4993Z" fill="#C4C4C4"/>
<path d="M22.4993 17.9184V10.3362L12.3344 2.40928C11.5547 1.80255 10.8054 1.45584 10.081 1.45584C9.02678 1.45584 8.02592 2.18668 7.06128 3.91036C7.05938 3.91429 7.05747 3.91823 7.05556 3.92217L0.181107 16.2223C0.181107 16.2243 0.181107 16.2243 0.179201 16.2243L0.102945 16.3602C0.102945 16.3622 0.101039 16.3622 0.101039 16.3622C0.0362215 16.506 0 16.6656 0 16.833C0 17.4338 0.470879 17.9184 1.05042 17.9184H22.4993Z" fill="black" fill-opacity="0.2"/>
<path d="M47.391 20.2684L37.0336 1.73155C36.5017 0.780086 35.1958 0 34.1302 0H11.1791C10.1153 0 8.80754 0.780086 8.27565 1.73155L7.05937 3.90831C8.68743 1.00663 10.4184 0.91798 12.3344 2.4092V2.41117L22.5012 10.3381L37.4587 22.002H47.7914C47.7914 21.3716 47.6579 20.7432 47.391 20.2684Z" fill="#C4C4C4"/>
<path d="M47.391 20.2684L37.0336 1.73155C36.5017 0.780086 35.1958 0 34.1302 0H11.1791C10.1153 0 8.80754 0.780086 8.27565 1.73155L7.05937 3.90831C8.68743 1.00663 10.4184 0.91798 12.3344 2.4092V2.41117L22.5012 10.3381L37.4587 22.002H47.7914C47.7914 21.3716 47.6579 20.7432 47.391 20.2684Z" fill="black" fill-opacity="0.2"/>
<g opacity="0.6">
<path d="M22.4992 10.3362L12.3344 2.40925V2.40728C10.4527 0.941663 8.74843 1.0047 7.14516 3.76258C8.42816 2.50971 9.7836 2.72443 11.2458 3.86304V3.86501L21.4126 11.7919L22.5012 12.641V10.3362H22.4992Z" fill="#C4C4C4"/>
<path d="M22.4992 10.3362L12.3344 2.40925V2.40728C10.4527 0.941663 8.74843 1.0047 7.14516 3.76258C8.42816 2.50971 9.7836 2.72443 11.2458 3.86304V3.86501L21.4126 11.7919L22.5012 12.641V10.3362H22.4992Z" fill="black" fill-opacity="0.2"/>
</g>
<g opacity="0.6">
<path d="M22.4992 33.6638L12.3344 41.5908V41.5927C10.4527 43.0584 8.74843 42.9953 7.14516 40.2374C8.42816 41.4923 9.7836 41.2756 11.2458 40.137V40.135L21.4126 32.2081L22.5012 31.359V33.6638H22.4992Z" fill="#C4C4C4"/>
<path d="M22.4992 33.6638L12.3344 41.5908V41.5927C10.4527 43.0584 8.74843 42.9953 7.14516 40.2374C8.42816 41.4923 9.7836 41.2756 11.2458 40.137V40.135L21.4126 32.2081L22.5012 31.359V33.6638H22.4992Z" fill="black" fill-opacity="0.2"/>
</g>
<path d="M37.4568 22L22.4993 33.6639L12.3344 41.5908C11.5547 42.1975 10.8054 42.5442 10.081 42.5442C9.02678 42.5442 8.02592 41.8134 7.06129 40.0917L8.27757 42.2684C8.80945 43.2199 10.1153 44 11.181 44H34.1321C35.1958 44 36.5036 43.2199 37.0355 42.2684L47.3929 23.7335C47.6598 23.2568 47.7914 22.6284 47.7914 22.002H37.4568V22Z" fill="#C4C4C4"/>
<path d="M37.4568 22L22.4993 33.6639L12.3344 41.5908C11.5547 42.1975 10.8054 42.5442 10.081 42.5442C9.02678 42.5442 8.02592 41.8134 7.06129 40.0917L8.27757 42.2684C8.80945 43.2199 10.1153 44 11.181 44H34.1321C35.1958 44 36.5036 43.2199 37.0355 42.2684L47.3929 23.7335C47.6598 23.2568 47.7914 22.6284 47.7914 22.002H37.4568V22Z" fill="black" fill-opacity="0.2"/>
<path d="M55.4951 20.2684L45.1377 1.73155C44.6058 0.780086 43.2999 0 42.2342 0H38.8485C38.9438 0.135924 39.0315 0.275788 39.1116 0.419592L49.469 18.9545C50.4546 20.7176 50.4546 23.2785 49.469 25.0435L39.1096 43.5804C39.0296 43.7242 38.9419 43.8641 38.8466 44H42.2323C43.2961 44 44.6039 43.2199 45.1357 42.2684L55.4932 23.7335C56.0269 22.7781 56.027 21.2199 55.4951 20.2684Z" fill="#C4C4C4"/>
<path d="M55.4951 20.2684L45.1377 1.73155C44.6058 0.780086 43.2999 0 42.2342 0H38.8485C38.9438 0.135924 39.0315 0.275788 39.1116 0.419592L49.469 18.9545C50.4546 20.7176 50.4546 23.2785 49.469 25.0435L39.1096 43.5804C39.0296 43.7242 38.9419 43.8641 38.8466 44H42.2323C43.2961 44 44.6039 43.2199 45.1357 42.2684L55.4932 23.7335C56.0269 22.7781 56.027 21.2199 55.4951 20.2684Z" fill="black" fill-opacity="0.2"/>
<path d="M63.6011 20.2684L53.2436 1.73155C52.7118 0.780086 51.4059 0 50.3421 0H46.9544C47.0498 0.135924 47.1375 0.275788 47.2175 0.419592L57.575 18.9545C58.5606 20.7176 58.5606 23.2785 57.575 25.0435L47.2175 43.5804C47.1375 43.7242 47.0479 43.8641 46.9544 44H50.3402C51.404 44 52.7118 43.2199 53.2436 42.2684L63.6011 23.7335C64.133 22.7781 64.133 21.2199 63.6011 20.2684Z" fill="#C4C4C4"/>
<path d="M63.6011 20.2684L53.2436 1.73155C52.7118 0.780086 51.4059 0 50.3421 0H46.9544C47.0498 0.135924 47.1375 0.275788 47.2175 0.419592L57.575 18.9545C58.5606 20.7176 58.5606 23.2785 57.575 25.0435L47.2175 43.5804C47.1375 43.7242 47.0479 43.8641 46.9544 44H50.3402C51.404 44 52.7118 43.2199 53.2436 42.2684L63.6011 23.7335C64.133 22.7781 64.133 21.2199 63.6011 20.2684Z" fill="black" fill-opacity="0.2"/>
</svg>
